<svg width="476" height="260" viewBox="0 0 476 260" fill="none" xmlns="http://www.w3.org/2000/svg">
<path fill-rule="evenodd" clip-rule="evenodd" d="M0.125488 26.4835C0.125488 11.8571 11.9826 0 26.609 0H449.642C464.268 0 476.125 11.8571 476.125 26.4836V233.516C476.125 248.143 464.268 260 449.642 260H26.609C11.9826 260 0.125488 248.143 0.125488 233.516V26.4835ZM328.604 191.278L366.422 70.407H399.05L437.054 191.278H408.134L400.732 162.543H363.9L356.411 191.278H328.604ZM392.376 130.101L395.241 141.224H369.456L372.354 130.101C374.085 124.045 375.753 117.618 377.36 110.821C378.966 104.023 380.449 97.4732 381.809 91.1701H382.551C384.157 97.4732 385.764 104.023 387.371 110.821C388.977 117.618 390.646 124.045 392.376 130.101ZM277.463 93.3947V191.278H304.9V93.3947H338.084V70.407H244.279V93.3947H277.463ZM157.872 191.278V70.407H233.51V93.3947H185.124V117.68H226.28V140.483H185.124V168.29H235.363V191.278H157.872ZM51.1452 70.4071V191.278H96.0083C104.66 191.278 112.508 189.98 119.552 187.385C126.72 184.79 132.406 180.773 136.608 175.335C140.81 169.897 142.911 162.914 142.911 154.386C142.911 146.6 140.995 140.544 137.164 136.219C133.333 131.77 128.018 128.803 121.221 127.32V126.579C126.288 124.725 130.181 121.45 132.9 116.753C135.619 111.933 136.978 106.495 136.978 100.439C136.978 92.7769 135.001 86.7828 131.046 82.4571C127.215 78.0079 121.9 74.9182 115.103 73.1879C108.429 71.334 100.89 70.4071 92.486 70.4071H51.1452ZM91.1883 118.793H78.3968V91.541H91.3737C97.8004 91.541 102.559 92.5297 105.648 94.5072C108.738 96.4846 110.283 99.8215 110.283 104.518C110.283 108.844 108.738 112.304 105.648 114.899C102.682 117.495 97.8622 118.793 91.1883 118.793ZM93.7837 170.144H78.3968V139H93.7837C101.199 139 106.761 140.174 110.468 142.522C114.3 144.87 116.215 148.64 116.215 153.83C116.215 159.392 114.3 163.532 110.468 166.251C106.761 168.846 101.199 170.144 93.7837 170.144Z" fill="black" style="fill:black;fill-opacity:1;"/>
</svg>
