<svg width="96" height="96" viewBox="0 0 96 96" fill="none" xmlns="http://www.w3.org/2000/svg">
<path d="M0 18C0 14.6863 2.68629 12 6 12H60C63.3137 12 66 14.6863 66 18V56C66 59.3137 63.3137 62 60 62H6C2.68629 62 0 59.3137 0 56V18Z" fill="#DBE5F6"/>
<path fill-rule="evenodd" clip-rule="evenodd" d="M60 14H6C3.79086 14 2 15.7909 2 18V56C2 58.2091 3.79086 60 6 60H60C62.2091 60 64 58.2091 64 56V18C64 15.7909 62.2091 14 60 14ZM6 12C2.68629 12 0 14.6863 0 18V56C0 59.3137 2.68629 62 6 62H60C63.3137 62 66 59.3137 66 56V18C66 14.6863 63.3137 12 60 12H6Z" fill="#0E3781"/>
<path fill-rule="evenodd" clip-rule="evenodd" d="M33 58C41.8366 58 49 50.8366 49 42C49 33.1634 41.8366 26 33 26C24.1634 26 17 33.1634 17 42C17 50.8366 24.1634 58 33 58ZM26 36C24.3431 36 23 37.3431 23 39V49C23 50.6569 24.3431 52 26 52H40C41.6569 52 43 50.6569 43 49V39C43 37.3431 41.6569 36 40 36H26Z" fill="#99BAF4"/>
<path d="M23 39C23 37.3431 24.3431 36 26 36H40C41.6569 36 43 37.3431 43 39V49C43 50.6569 41.6569 52 40 52H26C24.3431 52 23 50.6569 23 49V39Z" fill="#FFBF00"/>
<path fill-rule="evenodd" clip-rule="evenodd" d="M40 38H26C25.4477 38 25 38.4477 25 39V49C25 49.5523 25.4477 50 26 50H40C40.5523 50 41 49.5523 41 49V39C41 38.4477 40.5523 38 40 38ZM26 36C24.3431 36 23 37.3431 23 39V49C23 50.6569 24.3431 52 26 52H40C41.6569 52 43 50.6569 43 49V39C43 37.3431 41.6569 36 40 36H26Z" fill="#0E3781"/>
<path d="M32 42C32 41.4477 32.4477 41 33 41C33.5523 41 34 41.4477 34 42V46C34 46.5523 33.5523 47 33 47C32.4477 47 32 46.5523 32 46V42Z" fill="#0E3781"/>
<path fill-rule="evenodd" clip-rule="evenodd" d="M28 35C28 32.2386 30.2386 30 33 30C35.7614 30 38 32.2386 38 35V36H36V35C36 33.3431 34.6569 32 33 32C31.3431 32 30 33.3431 30 35V36H28V35Z" fill="#0E3781"/>
<path fill-rule="evenodd" clip-rule="evenodd" d="M65 24H1V22H65V24Z" fill="#0E3781"/>
<path d="M62 18C62 19.1046 61.1046 20 60 20C58.8954 20 58 19.1046 58 18C58 16.8954 58.8954 16 60 16C61.1046 16 62 16.8954 62 18Z" fill="#0E3781"/>
<path d="M56 18C56 19.1046 55.1046 20 54 20C52.8954 20 52 19.1046 52 18C52 16.8954 52.8954 16 54 16C55.1046 16 56 16.8954 56 18Z" fill="#0E3781"/>
<path d="M50 18C50 19.1046 49.1046 20 48 20C46.8954 20 46 19.1046 46 18C46 16.8954 46.8954 16 48 16C49.1046 16 50 16.8954 50 18Z" fill="#0E3781"/>
<path d="M82 42C82 49.732 75.732 56 68 56C60.268 56 54 49.732 54 42C54 34.268 60.268 28 68 28C75.732 28 82 34.268 82 42Z" fill="white"/>
<path fill-rule="evenodd" clip-rule="evenodd" d="M68 54C74.6274 54 80 48.6274 80 42C80 35.3726 74.6274 30 68 30C61.3726 30 56 35.3726 56 42C56 48.6274 61.3726 54 68 54ZM68 56C75.732 56 82 49.732 82 42C82 34.268 75.732 28 68 28C60.268 28 54 34.268 54 42C54 49.732 60.268 56 68 56Z" fill="#0E3781"/>
<path d="M93.9067 71.9762C95.2887 75.3127 96 78.8886 96 82.5C96 83.3284 95.3284 84 94.5 84H42.5C41.6716 84 41 83.3284 41 82.5C41 78.8887 41.7113 75.3127 43.0933 71.9762C44.4753 68.6398 46.501 65.6082 49.0546 63.0546C51.6082 60.501 54.6398 58.4753 57.9762 57.0933C61.3127 55.7113 64.8886 55 68.5 55C72.1114 55 75.6873 55.7113 79.0238 57.0933C82.3602 58.4753 85.3918 60.501 87.9454 63.0546C90.499 65.6082 92.5247 68.6398 93.9067 71.9762Z" fill="white"/>
<path fill-rule="evenodd" clip-rule="evenodd" d="M93.9951 82C93.9328 78.8216 93.2766 75.6813 92.0589 72.7416C90.7774 69.6478 88.8991 66.8367 86.5312 64.4688C84.1633 62.1009 81.3522 60.2226 78.2584 58.9411C75.1646 57.6596 71.8487 57 68.5 57C65.1513 57 61.8354 57.6596 58.7416 58.9411C55.6478 60.2226 52.8367 62.1009 50.4688 64.4688C48.1009 66.8367 46.2226 69.6478 44.9411 72.7416C43.7234 75.6813 43.0672 78.8216 43.0049 82H93.9951ZM96 82.5C96 78.8886 95.2887 75.3127 93.9067 71.9762C92.5247 68.6398 90.499 65.6082 87.9454 63.0546C85.3918 60.501 82.3602 58.4753 79.0238 57.0933C75.6873 55.7113 72.1114 55 68.5 55C64.8886 55 61.3127 55.7113 57.9762 57.0933C54.6398 58.4753 51.6082 60.501 49.0546 63.0546C46.501 65.6082 44.4753 68.6398 43.0933 71.9762C41.7113 75.3127 41 78.8887 41 82.5C41 83.3284 41.6716 84 42.5 84H94.5C95.3284 84 96 83.3284 96 82.5Z" fill="#0E3781"/>
</svg>
