<svg width="24" height="24" viewBox="0 0 24 24" fill="none" xmlns="http://www.w3.org/2000/svg">
<path fill-rule="evenodd" clip-rule="evenodd" d="M3.72058 8.5H3.25C2.55964 8.5 2 7.94036 2 7.25V5.25C2 4.55964 2.55964 4 3.25 4H20.75C21.4404 4 22 4.55964 22 5.25V7.25C22 7.94036 21.4404 8.5 20.75 8.5H20.2796V18.5C20.2796 19.8807 19.1603 21 17.7796 21H6.22058C4.83987 21 3.72058 19.8807 3.72058 18.5V8.5ZM3.5 7V5.5H20.5V7H3.5ZM5.22058 8.5V18.5C5.22058 19.0523 5.6683 19.5 6.22058 19.5H17.7796C18.3319 19.5 18.7796 19.0523 18.7796 18.5V8.5H5.22058Z" fill="black"/>
<path fill-rule="evenodd" clip-rule="evenodd" d="M9.6875 11.7503C9.6875 11.3361 10.0233 11.0003 10.4375 11.0003L13.5625 11.0003C13.9767 11.0003 14.3125 11.3361 14.3125 11.7503C14.3125 12.1645 13.9767 12.5003 13.5625 12.5003H10.4375C10.0233 12.5003 9.6875 12.1645 9.6875 11.7503Z" fill="black"/>
</svg>
