<svg width="22" height="22" viewBox="0 0 22 22" fill="none" xmlns="http://www.w3.org/2000/svg">
<g clip-path="url(#clip0_2827_1404)">
<path d="M16.9025 0.0876465L20.6921 0.226332L20.6936 0.226826C21.017 0.240286 21.3226 0.38085 21.5446 0.617939C21.7667 0.855027 21.8865 1.16901 21.8783 1.49228L21.7774 5.23557C21.7624 5.41697 21.6788 5.58539 21.5431 5.70569C21.4074 5.82598 21.2302 5.88938 21.0478 5.88233C20.8653 5.87527 20.6921 5.79782 20.5637 5.66772C20.4352 5.53761 20.3612 5.36271 20.3571 5.18075L20.4199 2.84792C20.4153 2.82687 20.4054 2.80727 20.3912 2.79107C20.3769 2.77488 20.3592 2.76209 20.3391 2.75468C20.3185 2.74677 20.2974 2.74425 20.2759 2.7471C20.2544 2.74995 20.2349 2.75771 20.2174 2.77036L12.6994 10.2574C12.5647 10.3806 12.3875 10.447 12.2036 10.4424C12.0196 10.4377 11.8446 10.3622 11.7141 10.2321C11.5837 10.102 11.5078 9.92711 11.5027 9.74318C11.4977 9.55926 11.5636 9.38196 11.6865 9.24694L19.152 1.81839C19.2622 1.59969 18.9833 1.58395 18.9833 1.58395L16.862 1.50739C16.6799 1.49104 16.5111 1.40529 16.3895 1.26837C16.2678 1.13144 16.2026 0.953643 16.2078 0.771223C16.2131 0.588804 16.2888 0.416435 16.4176 0.289268C16.5464 0.1621 16.7206 0.0898875 16.9025 0.0876465Z" fill="#505059" style="fill:#505059;fill:color(display-p3 0.3137 0.3137 0.3490);fill-opacity:1;"/>
<path d="M11 1.37499H3.4375C2.29841 1.37499 1.375 2.2984 1.375 3.43749V18.5625C1.375 19.7016 2.29841 20.625 3.4375 20.625H18.5625C19.7016 20.625 20.625 19.7016 20.625 18.5625V11C20.625 10.6203 20.3172 10.3125 19.9375 10.3125C19.5578 10.3125 19.25 10.6203 19.25 11V18.5625C19.25 18.9422 18.9422 19.25 18.5625 19.25H3.4375C3.0578 19.25 2.75 18.9422 2.75 18.5625V3.43749C2.75 3.05779 3.0578 2.74999 3.4375 2.74999H11C11.3797 2.74999 11.6875 2.44218 11.6875 2.06249C11.6875 1.68279 11.3797 1.37499 11 1.37499Z" fill="#505059" style="fill:#505059;fill:color(display-p3 0.3137 0.3137 0.3490);fill-opacity:1;"/>
</g>
<defs>
<clipPath id="clip0_2827_1404">
<rect width="22" height="22" fill="white" style="fill:white;fill:white;fill-opacity:1;"/>
</clipPath>
</defs>
</svg>
