<svg width="22" height="20" viewBox="0 0 22 20" fill="none" xmlns="http://www.w3.org/2000/svg">
<path d="M19.9375 19.5048H2.06251C1.51251 19.5014 0.987264 19.2828 0.600201 18.8965C0.213139 18.5102 -0.00204781 17.9888 1.46904e-05 17.4464V7.02788C-0.000672809 6.48611 0.216577 5.96675 0.602951 5.58181C0.989326 5.19687 1.51389 4.97962 2.06251 4.97623H19.9375C20.4861 4.97962 21.0107 5.19755 21.397 5.58181C21.7834 5.96607 22 6.48611 22 7.02788V17.4464C22.0021 17.9895 21.7862 18.5109 21.3998 18.8965C21.0134 19.2821 20.4875 19.5014 19.9375 19.5048ZM2.06251 6.34219C1.88032 6.34219 1.70501 6.41347 1.57645 6.5411C1.44789 6.66874 1.37501 6.84118 1.37501 7.02109V17.4396C1.37433 17.5292 1.39151 17.6181 1.4252 17.7016C1.45889 17.7851 1.50976 17.8605 1.5737 17.9243C1.63764 17.9881 1.71395 18.0384 1.79782 18.073C1.8817 18.1076 1.97176 18.1253 2.06251 18.1253H19.9375C20.0282 18.1253 20.1183 18.1076 20.2022 18.073C20.286 18.0384 20.3624 17.9881 20.4263 17.9243C20.4902 17.8605 20.5411 17.7851 20.5748 17.7016C20.6085 17.6181 20.6264 17.5292 20.625 17.4396V7.02788C20.625 6.84797 20.5528 6.67485 20.4236 6.54789C20.2943 6.42094 20.1197 6.34897 19.9375 6.34897L2.06251 6.34219ZM19.4837 3.66187H2.32239C2.19795 3.65508 2.08107 3.60212 1.99514 3.51251C1.9092 3.42289 1.86176 3.30476 1.86176 3.18188C1.86176 3.059 1.90989 2.94019 1.99514 2.85125C2.08039 2.76232 2.19795 2.70868 2.32239 2.7019H19.4837C19.6082 2.70868 19.7251 2.76164 19.811 2.85125C19.8969 2.94087 19.9444 3.059 19.9444 3.18188C19.9444 3.30476 19.8969 3.42357 19.811 3.51251C19.7251 3.60212 19.6082 3.65508 19.4837 3.66187ZM18.4387 1.45543H3.36739C3.24295 1.44864 3.12607 1.39568 3.04014 1.30607C2.9542 1.21645 2.90676 1.09832 2.90676 0.975439C2.90676 0.852557 2.95489 0.733749 3.04014 0.644812C3.12539 0.555875 3.24295 0.502242 3.36739 0.495453H18.4387C18.5632 0.502242 18.6801 0.555197 18.766 0.644812C18.8519 0.734428 18.8994 0.852557 18.8994 0.975439C18.8994 1.09832 18.8512 1.21713 18.766 1.30607C18.6801 1.39568 18.5632 1.44864 18.4387 1.45543Z" fill="#8E8E93"/>
</svg>
