<svg width="24" height="44" viewBox="0 0 24 44" fill="none" xmlns="http://www.w3.org/2000/svg">
<path fill-rule="evenodd" clip-rule="evenodd" d="M9.89834 16.1541C10.1031 16.1541 10.2691 16.3201 10.2691 16.5249V17.8126C10.2691 17.9373 10.3623 18.0414 10.4846 18.0659C11.1429 18.1977 11.7224 18.5474 12.1449 19.0366C12.2269 19.1317 12.3647 19.1612 12.4734 19.0984L13.5999 18.448C13.7773 18.3456 14.0041 18.4064 14.1065 18.5837C14.2088 18.761 14.1481 18.9878 13.9707 19.0902L12.8333 19.7469C12.7263 19.8087 12.6825 19.9396 12.7207 20.0571C12.8145 20.346 12.8652 20.6542 12.8652 20.9743C12.8652 21.3166 12.8072 21.6453 12.7006 21.9512C12.6592 22.0699 12.7024 22.2041 12.8113 22.267L13.9707 22.9364C14.1481 23.0388 14.2088 23.2655 14.1065 23.4429C14.0041 23.6202 13.7773 23.681 13.5999 23.5786L12.4279 22.9019C12.321 22.8402 12.1858 22.8676 12.1032 22.9593C11.6847 23.4238 11.1215 23.7553 10.4846 23.8828C10.3623 23.9073 10.2691 24.0114 10.2691 24.1361V25.5017C10.2691 25.7065 10.1031 25.8725 9.89834 25.8725C9.69356 25.8725 9.52756 25.7065 9.52756 25.5017L9.52756 24.1359C9.52756 24.0112 9.43441 23.9071 9.31217 23.8826C8.6755 23.7549 8.11252 23.4233 7.69419 22.9589C7.61158 22.8672 7.47634 22.8397 7.36944 22.9015L6.19663 23.5786C6.01928 23.681 5.79251 23.6202 5.69012 23.4429C5.58773 23.2655 5.64849 23.0388 5.82584 22.9364L6.98626 22.2664C7.09512 22.2035 7.13836 22.0693 7.09701 21.9507C6.99049 21.6449 6.93259 21.3164 6.93259 20.9743C6.93259 20.6544 6.98324 20.3463 7.07695 20.0577C7.11509 19.9402 7.07124 19.8092 6.96427 19.7475L5.82584 19.0902C5.64849 18.9878 5.58773 18.761 5.69012 18.5837C5.79251 18.4064 6.01928 18.3456 6.19663 18.448L7.32397 19.0989C7.43273 19.1617 7.57048 19.1321 7.65254 19.0371C8.07479 18.5479 8.65412 18.1981 9.31216 18.0661C9.4344 18.0415 9.52756 17.9375 9.52756 17.8128L9.52756 16.5249C9.52756 16.3201 9.69356 16.1541 9.89834 16.1541ZM12.1236 20.9743C12.1236 22.203 11.1276 23.1991 9.89889 23.1991C8.67021 23.1991 7.67417 22.203 7.67417 20.9743C7.67417 19.7457 8.67021 18.7496 9.89889 18.7496C11.1276 18.7496 12.1236 19.7457 12.1236 20.9743Z" fill="#8E8E93"/>
<path fill-rule="evenodd" clip-rule="evenodd" d="M3.22472 15.289C3.22472 14.7429 3.6674 14.3002 4.21348 14.3002H19.0449C19.5057 14.3002 19.8929 14.6154 20.0026 15.0419C20.6767 15.0507 21.2202 15.5453 21.2202 16.1541V18.3788C21.2202 18.9783 20.6934 19.467 20.0337 19.4903V22.7056C20.6934 22.7289 21.2202 23.2176 21.2202 23.817V25.7946C21.2202 26.394 20.6934 26.8827 20.0337 26.9061V26.9069C20.0337 27.453 19.591 27.8957 19.0449 27.8957H4.21348C3.6674 27.8957 3.22472 27.453 3.22472 26.9069V15.289ZM4.21348 15.0418H19.0449C19.1815 15.0418 19.2921 15.1524 19.2921 15.289V26.9069C19.2921 27.0434 19.1815 27.1541 19.0449 27.1541H4.21348C4.07696 27.1541 3.96629 27.0434 3.96629 26.9069V15.289C3.96629 15.1524 4.07696 15.0418 4.21348 15.0418ZM20.0337 23.5177C20.0337 23.481 20.0658 23.452 20.1013 23.4614C20.2718 23.5068 20.3963 23.6489 20.3963 23.817V25.7946C20.3963 25.9628 20.2718 26.1048 20.1013 26.1502C20.0658 26.1596 20.0337 26.1307 20.0337 26.0939V23.5177ZM20.1013 18.7345C20.2718 18.6891 20.3963 18.547 20.3963 18.3788V16.1541C20.3963 15.9859 20.2718 15.8439 20.1013 15.7985C20.0658 15.7891 20.0337 15.818 20.0337 15.8548V18.6782C20.0337 18.7149 20.0658 18.7439 20.1013 18.7345Z" fill="#8E8E93"/>
<path fill-rule="evenodd" clip-rule="evenodd" d="M2.48315 12.0755C1.66403 12.0755 1 12.7395 1 13.5586V28.6373C1 29.3365 1.48383 29.9227 2.13495 30.0793C2.26002 30.1094 2.35955 30.2143 2.35955 30.343V30.5654C2.35955 31.3162 2.96824 31.9249 3.7191 31.9249H5.20225C5.95311 31.9249 6.5618 31.3162 6.5618 30.5654V30.3676C6.5618 30.2311 6.67247 30.1204 6.80899 30.1204H17.191C17.3275 30.1204 17.4382 30.2311 17.4382 30.3676V30.5654C17.4382 31.3162 18.0469 31.9249 18.7978 31.9249H20.2809C21.0318 31.9249 21.6404 31.3162 21.6404 30.5654V30.343C21.6404 30.2143 21.74 30.1094 21.8651 30.0793C22.5162 29.9227 23 29.3365 23 28.6373V13.5586C23 12.7395 22.336 12.0755 21.5169 12.0755H2.48315ZM21.5169 13.0642H2.48315C2.21011 13.0642 1.98876 13.2856 1.98876 13.5586V28.6373C1.98876 28.9103 2.21011 29.1316 2.48315 29.1316H21.5169C21.7899 29.1316 22.0112 28.9103 22.0112 28.6373V13.5586C22.0112 13.2856 21.7899 13.0642 21.5169 13.0642ZM20.8989 30.3676C20.8989 30.2311 20.7882 30.1204 20.6517 30.1204H18.427C18.2904 30.1204 18.1798 30.2311 18.1798 30.3676V30.5654C18.1798 30.9067 18.4565 31.1833 18.7978 31.1833H20.2809C20.6222 31.1833 20.8989 30.9067 20.8989 30.5654V30.3676ZM3.10112 30.5654V30.3676C3.10112 30.2311 3.21179 30.1204 3.34831 30.1204H5.57303C5.70955 30.1204 5.82022 30.2311 5.82022 30.3676V30.5654C5.82022 30.9067 5.54355 31.1833 5.20225 31.1833H3.7191C3.3778 31.1833 3.10112 30.9067 3.10112 30.5654Z" fill="#8E8E93"/>
</svg>
