<svg width="1024" height="1024" viewBox="0 0 1024 1024" fill="none" xmlns="http://www.w3.org/2000/svg">
<path d="M249.358 174C207.739 174 174 207.592 174 249.031V390.495C174 397.401 179.623 403 186.56 403C193.496 403 199.119 397.401 199.119 390.495V249.031C199.119 221.405 221.612 199.01 249.358 199.01H391.44C398.377 199.01 404 193.412 404 186.505C404 179.599 398.377 174 391.44 174H249.358Z" fill="#65ABFF" style="fill:#65ABFF;fill:color(display-p3 0.3961 0.6691 1.0000);fill-opacity:1;"/>
<path d="M633.505 174C626.599 174 621 179.599 621 186.505C621 193.412 626.599 199.01 633.505 199.01H774.969C802.595 199.01 824.99 221.405 824.99 249.031V382C824.99 382 830.094 382 837 382C843.906 382 850 382 850 382V249.031C850 207.592 816.408 174 774.969 174H633.505Z" fill="#65ABFF" style="fill:#65ABFF;fill:color(display-p3 0.3961 0.6691 1.0000);fill-opacity:1;"/>
<path d="M186.56 622C193.496 622 199.119 627.574 199.119 634.451V775.297C199.119 802.802 221.612 825.099 249.358 825.099H391.44C398.377 825.099 404 830.673 404 837.549C404 844.426 398.377 850 391.44 850H249.358C207.739 850 174 816.554 174 775.297V634.451C174 627.574 179.623 622 186.56 622Z" fill="#65ABFF" style="fill:#65ABFF;fill:color(display-p3 0.3961 0.6691 1.0000);fill-opacity:1;"/>
<path d="M850 644.451C850 644.451 844.406 644.451 837.5 644.451C830.594 644.451 824.99 644.451 824.99 644.451V775.297C824.99 802.802 802.595 825.099 774.969 825.099H633.505C626.599 825.099 621 830.673 621 837.549C621 844.426 626.599 850 633.505 850H774.969C816.408 850 850 816.554 850 775.297V644.451Z" fill="#65ABFF" style="fill:#65ABFF;fill:color(display-p3 0.3961 0.6691 1.0000);fill-opacity:1;"/>
</svg>
