<svg width="1024" height="1024" viewBox="0 0 1024 1024" fill="none" xmlns="http://www.w3.org/2000/svg">
<path d="M917 408C928.046 408 937 416.954 937 428V596C937 607.046 928.046 616 917 616H577C565.954 616 557 607.046 557 596V428C557 416.954 565.954 408 577 408H917ZM597.815 464.326V561.022H633.706C640.627 561.022 646.905 559.984 652.541 557.908C658.275 555.832 662.824 552.619 666.186 548.269C669.547 543.918 671.228 538.332 671.229 531.51C671.229 525.281 669.696 520.436 666.631 516.976C663.566 513.416 659.314 511.043 653.876 509.856V509.263C657.93 507.78 661.045 505.159 663.22 501.402C665.395 497.546 666.482 493.196 666.482 488.352C666.482 482.222 664.9 477.426 661.736 473.966C658.671 470.407 654.42 467.935 648.982 466.551C643.643 465.068 637.612 464.326 630.889 464.326H597.815ZM683.197 561.022H745.19V542.633H704.999V520.387H737.923V502.145H704.999V482.716H743.707V464.326H683.197V561.022ZM752.322 482.716H778.869V561.022H800.819V482.716H827.366V464.326H752.322V482.716ZM819.782 561.022H842.028L848.019 538.035H877.485L883.406 561.022H906.542L876.139 464.326H850.037L819.782 561.022ZM631.927 519.2C637.859 519.2 642.308 520.139 645.274 522.018C648.339 523.896 649.872 526.912 649.872 531.064C649.872 535.514 648.339 538.826 645.274 541.001C642.308 543.077 637.859 544.115 631.927 544.115H619.617V519.2H631.927ZM862.939 480.937C864.225 485.979 865.511 491.219 866.796 496.657C868.081 502.095 869.416 507.236 870.8 512.081L873.092 520.979H852.463L854.782 512.081C856.166 507.236 857.502 502.095 858.787 496.657C860.072 491.219 861.258 485.979 862.346 480.937H862.939ZM629.999 481.233C635.14 481.233 638.946 482.024 641.418 483.605C643.89 485.187 645.126 487.857 645.126 491.614C645.126 495.075 643.89 497.844 641.418 499.92C639.045 501.996 635.189 503.034 629.851 503.034H619.617V481.233H629.999Z" fill="#65ABFF" style="fill:#65ABFF;fill:color(display-p3 0.3961 0.6691 1.0000);fill-opacity:1;"/>
</svg>
