<svg width="1024" height="1024" viewBox="0 0 1024 1024" fill="none" xmlns="http://www.w3.org/2000/svg">
<path d="M681.2 303C686.292 303 690.699 304.81 694.419 308.431C698.14 312.051 700 316.338 700 321.292V381H643.6V357.875H512V682.838C535.304 670.835 556.161 657.782 574.568 643.682C574.866 643.455 575.161 643.227 575.457 643H657.02C649.334 651.781 640.7 660.393 631.115 668.833C617.701 680.647 605.314 690.459 593.956 698.271C582.598 706.083 570.75 713.467 558.412 720.422C546.075 727.377 537.311 732.092 532.121 734.568C526.932 737.046 522.77 738.952 519.638 740.285C517.287 741.429 514.741 742 512 742C509.259 742 506.713 741.429 504.362 740.285C501.23 738.952 497.067 737.046 491.878 734.568C486.688 732.091 477.925 727.376 465.588 720.422C453.25 713.467 441.402 706.083 430.044 698.271C418.686 690.459 406.299 680.647 392.885 668.833C379.47 657.02 367.915 644.873 358.222 632.393C348.527 619.913 340.401 605.622 333.841 589.521C327.28 573.421 324 557.178 324 540.792V321.292C324 316.338 325.86 312.051 329.581 308.431C333.301 304.81 337.708 303 342.8 303H681.2Z" fill="white" style="fill:white;fill-opacity:1;"/>
</svg>
