<svg width="20" height="22" viewBox="0 0 20 22" fill="none" xmlns="http://www.w3.org/2000/svg">
<path d="M18.25 -1.52588e-05H1.75C1.38562 -1.52588e-05 1.03569 0.145047 0.777875 0.40286C0.520062 0.660672 0.375 1.01061 0.375 1.37498V20.625C0.375 20.9894 0.520062 21.3393 0.777875 21.5971C1.03569 21.8549 1.38562 22 1.75 22H12.2756C12.4592 22.0007 12.6414 21.9642 12.8112 21.8934C12.981 21.8226 13.1343 21.7181 13.2629 21.5875L19.2372 15.4302C19.4875 15.1724 19.6264 14.8266 19.625 14.4677V1.37498C19.625 1.01061 19.4799 0.660672 19.2221 0.40286C18.9643 0.145047 18.6144 -1.52588e-05 18.25 -1.52588e-05V-1.52588e-05ZM2.4375 1.37498H17.5625C17.7447 1.37498 17.92 1.44717 18.0486 1.57642C18.1771 1.70567 18.25 1.8803 18.25 2.06248V13.0075C18.25 13.1897 18.1778 13.365 18.0486 13.4935C17.9193 13.6221 17.7447 13.695 17.5625 13.695H13.7304C13.1831 13.695 12.6586 13.9122 12.2722 14.2993C11.8858 14.6864 11.6679 15.2109 11.6679 15.7575V19.9375C11.6679 20.1197 11.5957 20.295 11.4664 20.4235C11.3372 20.5521 11.1626 20.625 10.9804 20.625H2.4375C2.25531 20.625 2.08 20.5528 1.95144 20.4235C1.82287 20.2943 1.75 20.1197 1.75 19.9375V2.06248C1.75 1.8803 1.82219 1.70498 1.95144 1.57642C2.08069 1.44786 2.25531 1.37498 2.4375 1.37498ZM13.0429 19.1812V15.7575C13.0429 15.5753 13.1151 15.4 13.2443 15.2714C13.3736 15.1429 13.5482 15.07 13.7304 15.07H17.0386C17.0909 15.07 17.1411 15.0858 17.1844 15.1147C17.2277 15.1435 17.2614 15.1841 17.2813 15.2322C17.3012 15.2804 17.3074 15.3326 17.2978 15.3842C17.2882 15.4357 17.2641 15.4825 17.2277 15.5196L13.4973 19.3696C13.4602 19.4074 13.4127 19.4335 13.3605 19.4439C13.3082 19.4542 13.2546 19.4494 13.2058 19.4287C13.157 19.4088 13.1151 19.3737 13.0862 19.3297C13.0573 19.2857 13.0415 19.2335 13.0422 19.1805L13.0429 19.1812Z" fill="#175DDC"/>
</svg>
