<svg width="16" height="16" viewBox="0 0 16 16" fill="none" xmlns="http://www.w3.org/2000/svg">
<g clip-path="url(#clip0_0_45)">
<path fill-rule="evenodd" clip-rule="evenodd" d="M4.5 3H14.5C15.3284 3 16 3.67157 16 4.5V14.5C16 15.3284 15.3284 16 14.5 16H4.5C3.67157 16 3 15.3284 3 14.5V4.5C3 3.67157 3.67157 3 4.5 3ZM4.5 4C4.22386 4 4 4.22386 4 4.5V14.5C4 14.7761 4.22386 15 4.5 15H14.5C14.7761 15 15 14.7761 15 14.5V4.5C15 4.22386 14.7761 4 14.5 4H4.5Z" fill="white"/>
<path d="M11.5 0H1.5C0.671572 0 0 0.671574 0 1.5V11.5C0 12.3284 0.671574 13 1.5 13H3V12H1.5C1.22386 12 1 11.7761 1 11.5V1.5C1 1.22386 1.22386 1 1.5 1H11.5C11.7761 1 12 1.22386 12 1.5V3H13V1.5C13 0.671573 12.3284 0 11.5 0Z" fill="white"/>
</g>
<defs>
<clipPath id="clip0_0_45">
<rect width="16" height="16" fill="white"/>
</clipPath>
</defs>
</svg>
