<svg width="22" height="20" viewBox="0 0 22 20" fill="none" xmlns="http://www.w3.org/2000/svg">
<path d="M19.9646 3.421H12.6592C12.4564 3.41607 12.2639 3.32875 12.1243 3.17805C11.9847 3.02736 11.9084 2.82667 11.9125 2.61964V2.25628C11.9152 1.69927 11.7021 1.1648 11.3197 0.768347C10.9374 0.371893 10.4176 0.147963 9.87436 0.143738H2.0354C1.49218 0.148667 0.973019 0.373301 0.591386 0.769755C0.209752 1.16621 -0.00272413 1.69998 2.63748e-05 2.25628V17.73C-0.00272413 18.287 0.21044 18.8214 0.592761 19.2179C0.975082 19.6143 1.49493 19.8383 2.03815 19.8425L19.9618 19.8566C20.2266 19.8566 20.4886 19.8038 20.7327 19.7003C20.9768 19.5967 21.1996 19.4453 21.3866 19.2538C21.5819 19.0559 21.7373 18.8207 21.8425 18.5609C21.9477 18.3011 22.0014 18.0222 22 17.7412V5.53495C22.0007 4.97935 21.7868 4.44558 21.4059 4.04983C21.0249 3.65408 20.5071 3.42804 19.9646 3.421ZM2.03815 1.45492H9.8771C10.0793 1.46056 10.2711 1.54788 10.4107 1.69787C10.5503 1.84786 10.6259 2.04855 10.6211 2.25628V2.61964C10.6211 3.17594 10.8357 3.70971 11.2173 4.10546C11.5989 4.50121 12.1188 4.72584 12.662 4.73218H19.9674C20.1695 4.73711 20.3614 4.82373 20.5016 4.97372C20.6419 5.12371 20.7176 5.32369 20.7127 5.53072V7.09541C20.7127 7.16161 20.699 7.2278 20.6742 7.28836C20.6495 7.34892 20.6123 7.40525 20.5663 7.45173C20.5202 7.49821 20.4652 7.53553 20.4054 7.56017C20.3455 7.58482 20.2809 7.5982 20.2163 7.5975H1.78923C1.65858 7.5982 1.53275 7.54539 1.43992 7.45103C1.34709 7.35667 1.29483 7.22851 1.29414 7.09471V2.25558C1.28933 2.04855 1.36497 1.84786 1.50455 1.69716C1.64414 1.54647 1.83599 1.45915 2.03815 1.45422V1.45492ZM20.4776 18.3243C20.4109 18.3933 20.3311 18.4482 20.2431 18.4855C20.1551 18.5229 20.0609 18.5426 19.966 18.5426L2.03815 18.5299C1.83599 18.525 1.64414 18.4377 1.50455 18.2877C1.36497 18.1377 1.28933 17.937 1.29414 17.73V9.42062C1.29414 9.35443 1.30721 9.28823 1.33196 9.22697C1.35671 9.16571 1.39316 9.11008 1.43923 9.0636C1.4853 9.01713 1.53962 8.9798 1.59945 8.95445C1.65927 8.9291 1.72391 8.91643 1.78854 8.91643H20.217C20.3483 8.91572 20.4741 8.96924 20.567 9.0636C20.6598 9.15796 20.7127 9.28683 20.7134 9.42062V17.7469C20.7134 17.8546 20.6921 17.9609 20.6515 18.0602C20.611 18.1595 20.5518 18.2489 20.4769 18.3243H20.4776Z" fill="#8E8E93"/>
</svg>
