<svg width="124" height="124" viewBox="0 0 124 124" fill="none" xmlns="http://www.w3.org/2000/svg">
<g clip-path="url(#clip0_1824_91)">
<path d="M69.75 10.3333C69.75 4.62639 74.3764 0 80.0833 0H90.4167C96.1236 0 100.75 4.62639 100.75 10.3333V15.5H69.75V10.3333Z" fill="#AAC3EF"/>
<path fill-rule="evenodd" clip-rule="evenodd" d="M90.4167 2.58333H80.0833C75.8031 2.58333 72.3333 6.05313 72.3333 10.3333V12.9167H98.1667V10.3333C98.1667 6.05313 94.6969 2.58333 90.4167 2.58333ZM80.0833 0C74.3764 0 69.75 4.62639 69.75 10.3333V15.5H100.75V10.3333C100.75 4.62639 96.1236 0 90.4167 0H80.0833Z" fill="#020F66"/>
<path d="M60.7083 20.6668C60.7083 14.9599 65.3347 10.3335 71.0416 10.3335H99.4583C105.165 10.3335 109.792 14.9599 109.792 20.6668V28.4168H60.7083V20.6668Z" fill="#AAC3EF"/>
<path fill-rule="evenodd" clip-rule="evenodd" d="M99.4583 12.9168H71.0416C66.7614 12.9168 63.2916 16.3866 63.2916 20.6668V25.8335H107.208V20.6668C107.208 16.3866 103.739 12.9168 99.4583 12.9168ZM71.0416 10.3335C65.3347 10.3335 60.7083 14.9599 60.7083 20.6668V28.4168H109.792V20.6668C109.792 14.9599 105.165 10.3335 99.4583 10.3335H71.0416Z" fill="#020F66"/>
<path d="M51.6667 33.5833C51.6667 27.8764 56.2931 23.25 62 23.25H108.5C114.207 23.25 118.833 27.8764 118.833 33.5833V118.833H51.6667V33.5833Z" fill="#AAC3EF"/>
<path fill-rule="evenodd" clip-rule="evenodd" d="M108.5 25.8333H62C57.7198 25.8333 54.25 29.3031 54.25 33.5833V116.25H116.25V33.5833C116.25 29.3031 112.78 25.8333 108.5 25.8333ZM62 23.25C56.2931 23.25 51.6667 27.8764 51.6667 33.5833V118.833H118.833V33.5833C118.833 27.8764 114.207 23.25 108.5 23.25H62Z" fill="#020F66"/>
<path d="M5.16669 56.8333C5.16669 51.1264 9.79308 46.5 15.5 46.5H64.5834C70.2903 46.5 74.9167 51.1264 74.9167 56.8333V118.833H5.16669V56.8333Z" fill="#DBE5F6"/>
<path fill-rule="evenodd" clip-rule="evenodd" d="M64.5834 49.0833H15.5C11.2198 49.0833 7.75002 52.5531 7.75002 56.8333V116.25H72.3334V56.8333C72.3334 52.5531 68.8636 49.0833 64.5834 49.0833ZM15.5 46.5C9.79308 46.5 5.16669 51.1264 5.16669 56.8333V118.833H74.9167V56.8333C74.9167 51.1264 70.2903 46.5 64.5834 46.5H15.5Z" fill="#020F66"/>
<path d="M88.7084 78.0614C91.1985 73.7784 97.3848 73.7784 99.8749 78.0614L120.941 114.295C123.444 118.601 120.338 124 115.358 124H73.2254C68.245 124 65.1389 118.601 67.6421 114.295L88.7084 78.0614Z" fill="#FFBF00"/>
<path fill-rule="evenodd" clip-rule="evenodd" d="M118.708 115.594L97.6416 79.3598C96.1475 76.79 92.4357 76.79 90.9417 79.3598L69.8754 115.594C68.3735 118.177 70.2372 121.416 73.2254 121.416H115.358C118.346 121.416 120.21 118.177 118.708 115.594ZM99.8749 78.0614C97.3848 73.7784 91.1985 73.7784 88.7084 78.0614L67.6421 114.295C65.1389 118.601 68.245 124 73.2254 124H115.358C120.338 124 123.444 118.601 120.941 114.295L99.8749 78.0614Z" fill="#020F66"/>
<path d="M96.875 113.667C96.875 115.094 95.7184 116.25 94.2916 116.25C92.8649 116.25 91.7083 115.094 91.7083 113.667C91.7083 112.24 92.8649 111.083 94.2916 111.083C95.7184 111.083 96.875 112.24 96.875 113.667Z" fill="#020F66"/>
<path d="M90.4932 91.1311C90.4523 90.7494 90.7515 90.4165 91.1354 90.4165H97.448C97.8319 90.4165 98.131 90.7494 98.0901 91.1311L96.291 107.923C96.2558 108.251 95.9789 108.5 95.6489 108.5H92.9345C92.6045 108.5 92.3275 108.251 92.2924 107.923L90.4932 91.1311Z" fill="#020F66"/>
<path d="M27.125 103.333C27.125 97.6264 31.7514 93 37.4583 93H42.625C48.3319 93 52.9583 97.6264 52.9583 103.333V118.833H27.125V103.333Z" fill="#AAC3EF"/>
<path fill-rule="evenodd" clip-rule="evenodd" d="M42.625 95.5833H37.4583C33.1781 95.5833 29.7083 99.0531 29.7083 103.333V116.25H50.375V103.333C50.375 99.0531 46.9052 95.5833 42.625 95.5833ZM37.4583 93C31.7514 93 27.125 97.6264 27.125 103.333V118.833H52.9583V103.333C52.9583 97.6264 48.3319 93 42.625 93H37.4583Z" fill="#020F66"/>
<path d="M16.7917 59.4167C16.7917 58.7033 17.37 58.125 18.0834 58.125H28.4167C29.1301 58.125 29.7084 58.7033 29.7084 59.4167V69.75C29.7084 70.4634 29.1301 71.0417 28.4167 71.0417H18.0834C17.37 71.0417 16.7917 70.4634 16.7917 69.75V59.4167Z" fill="white"/>
<path fill-rule="evenodd" clip-rule="evenodd" d="M19.375 60.7083V68.4583H27.125V60.7083H19.375ZM18.0834 58.125C17.37 58.125 16.7917 58.7033 16.7917 59.4167V69.75C16.7917 70.4634 17.37 71.0417 18.0834 71.0417H28.4167C29.1301 71.0417 29.7084 70.4634 29.7084 69.75V59.4167C29.7084 58.7033 29.1301 58.125 28.4167 58.125H18.0834Z" fill="#020F66"/>
<path d="M16.7917 76.2082C16.7917 75.4948 17.37 74.9165 18.0834 74.9165H28.4167C29.1301 74.9165 29.7084 75.4948 29.7084 76.2082V86.5415C29.7084 87.2549 29.1301 87.8332 28.4167 87.8332H18.0834C17.37 87.8332 16.7917 87.2549 16.7917 86.5415V76.2082Z" fill="white"/>
<path fill-rule="evenodd" clip-rule="evenodd" d="M19.375 77.4998V85.2498H27.125V77.4998H19.375ZM18.0834 74.9165C17.37 74.9165 16.7917 75.4948 16.7917 76.2082V86.5415C16.7917 87.2549 17.37 87.8332 18.0834 87.8332H28.4167C29.1301 87.8332 29.7084 87.2549 29.7084 86.5415V76.2082C29.7084 75.4948 29.1301 74.9165 28.4167 74.9165H18.0834Z" fill="#020F66"/>
<path d="M33.5833 59.4167C33.5833 58.7033 34.1616 58.125 34.875 58.125H45.2083C45.9217 58.125 46.5 58.7033 46.5 59.4167V69.75C46.5 70.4634 45.9217 71.0417 45.2083 71.0417H34.875C34.1616 71.0417 33.5833 70.4634 33.5833 69.75V59.4167Z" fill="white"/>
<path fill-rule="evenodd" clip-rule="evenodd" d="M36.1666 60.7083V68.4583H43.9166V60.7083H36.1666ZM34.875 58.125C34.1616 58.125 33.5833 58.7033 33.5833 59.4167V69.75C33.5833 70.4634 34.1616 71.0417 34.875 71.0417H45.2083C45.9217 71.0417 46.5 70.4634 46.5 69.75V59.4167C46.5 58.7033 45.9217 58.125 45.2083 58.125H34.875Z" fill="#020F66"/>
<path d="M33.5833 76.2082C33.5833 75.4948 34.1616 74.9165 34.875 74.9165H45.2083C45.9217 74.9165 46.5 75.4948 46.5 76.2082V86.5415C46.5 87.2549 45.9217 87.8332 45.2083 87.8332H34.875C34.1616 87.8332 33.5833 87.2549 33.5833 86.5415V76.2082Z" fill="white"/>
<path fill-rule="evenodd" clip-rule="evenodd" d="M36.1666 77.4998V85.2498H43.9166V77.4998H36.1666ZM34.875 74.9165C34.1616 74.9165 33.5833 75.4948 33.5833 76.2082V86.5415C33.5833 87.2549 34.1616 87.8332 34.875 87.8332H45.2083C45.9217 87.8332 46.5 87.2549 46.5 86.5415V76.2082C46.5 75.4948 45.9217 74.9165 45.2083 74.9165H34.875Z" fill="#020F66"/>
<path d="M50.375 76.2082C50.375 75.4948 50.9533 74.9165 51.6667 74.9165H62C62.7134 74.9165 63.2917 75.4948 63.2917 76.2082V86.5415C63.2917 87.2549 62.7134 87.8332 62 87.8332H51.6667C50.9533 87.8332 50.375 87.2549 50.375 86.5415V76.2082Z" fill="white"/>
<path fill-rule="evenodd" clip-rule="evenodd" d="M52.9583 77.4998V85.2498H60.7083V77.4998H52.9583ZM51.6667 74.9165C50.9533 74.9165 50.375 75.4948 50.375 76.2082V86.5415C50.375 87.2549 50.9533 87.8332 51.6667 87.8332H62C62.7134 87.8332 63.2917 87.2549 63.2917 86.5415V76.2082C63.2917 75.4948 62.7134 74.9165 62 74.9165H51.6667Z" fill="#020F66"/>
<path d="M50.375 59.4167C50.375 58.7033 50.9533 58.125 51.6667 58.125H62C62.7134 58.125 63.2917 58.7033 63.2917 59.4167V69.75C63.2917 70.4634 62.7134 71.0417 62 71.0417H51.6667C50.9533 71.0417 50.375 70.4634 50.375 69.75V59.4167Z" fill="white"/>
<path fill-rule="evenodd" clip-rule="evenodd" d="M52.9583 60.7083V68.4583H60.7083V60.7083H52.9583ZM51.6667 58.125C50.9533 58.125 50.375 58.7033 50.375 59.4167V69.75C50.375 70.4634 50.9533 71.0417 51.6667 71.0417H62C62.7134 71.0417 63.2917 70.4634 63.2917 69.75V59.4167C63.2917 58.7033 62.7134 58.125 62 58.125H51.6667Z" fill="#020F66"/>
<path fill-rule="evenodd" clip-rule="evenodd" d="M60.7083 34.8752C60.7083 34.1618 61.2866 33.5835 62 33.5835H69.75C70.4633 33.5835 71.0416 34.1618 71.0416 34.8752C71.0416 35.5885 70.4633 36.1668 69.75 36.1668L62 36.1668C61.2866 36.1668 60.7083 35.5885 60.7083 34.8752ZM74.9166 33.5835C74.2033 33.5835 73.625 34.1618 73.625 34.8752C73.625 35.5885 74.2033 36.1668 74.9166 36.1668L82.6666 36.1668C83.38 36.1668 83.9583 35.5885 83.9583 34.8752C83.9583 34.1618 83.38 33.5835 82.6666 33.5835H74.9166ZM86.5416 34.8752C86.5416 34.1618 87.1199 33.5835 87.8333 33.5835H95.5833C96.2967 33.5835 96.875 34.1618 96.875 34.8752C96.875 35.5885 96.2967 36.1668 95.5833 36.1668L87.8333 36.1668C87.1199 36.1668 86.5416 35.5885 86.5416 34.8752ZM99.4583 34.8752C99.4583 34.1618 100.037 33.5835 100.75 33.5835H108.5C109.213 33.5835 109.792 34.1618 109.792 34.8752C109.792 35.5885 109.213 36.1668 108.5 36.1668L100.75 36.1668C100.037 36.1668 99.4583 35.5885 99.4583 34.8752ZM99.4583 42.6252C99.4583 41.9118 100.037 41.3335 100.75 41.3335L108.5 41.3335C109.213 41.3335 109.792 41.9118 109.792 42.6252C109.792 43.3385 109.213 43.9168 108.5 43.9168L100.75 43.9168C100.037 43.9168 99.4583 43.3385 99.4583 42.6252ZM100.75 49.0835C100.037 49.0835 99.4583 49.6618 99.4583 50.3752C99.4583 51.0885 100.037 51.6668 100.75 51.6668H108.5C109.213 51.6668 109.792 51.0885 109.792 50.3752C109.792 49.6618 109.213 49.0835 108.5 49.0835L100.75 49.0835ZM99.4583 58.1252C99.4583 57.4118 100.037 56.8335 100.75 56.8335H108.5C109.213 56.8335 109.792 57.4118 109.792 58.1252C109.792 58.8385 109.213 59.4168 108.5 59.4168H100.75C100.037 59.4168 99.4583 58.8385 99.4583 58.1252ZM100.75 64.5835C100.037 64.5835 99.4583 65.1618 99.4583 65.8752C99.4583 66.5885 100.037 67.1668 100.75 67.1668H108.5C109.213 67.1668 109.792 66.5885 109.792 65.8752C109.792 65.1618 109.213 64.5835 108.5 64.5835H100.75ZM87.8333 41.3335C87.1199 41.3335 86.5416 41.9118 86.5416 42.6252C86.5416 43.3385 87.1199 43.9168 87.8333 43.9168L95.5833 43.9168C96.2967 43.9168 96.875 43.3385 96.875 42.6252C96.875 41.9118 96.2967 41.3335 95.5833 41.3335L87.8333 41.3335ZM86.5416 50.3752C86.5416 49.6618 87.1199 49.0835 87.8333 49.0835L95.5833 49.0835C96.2967 49.0835 96.875 49.6618 96.875 50.3752C96.875 51.0885 96.2967 51.6668 95.5833 51.6668H87.8333C87.1199 51.6668 86.5416 51.0885 86.5416 50.3752ZM87.8333 56.8335C87.1199 56.8335 86.5416 57.4118 86.5416 58.1252C86.5416 58.8385 87.1199 59.4168 87.8333 59.4168H95.5833C96.2967 59.4168 96.875 58.8385 96.875 58.1252C96.875 57.4118 96.2967 56.8335 95.5833 56.8335H87.8333ZM86.5416 65.8752C86.5416 65.1618 87.1199 64.5835 87.8333 64.5835H95.5833C96.2967 64.5835 96.875 65.1618 96.875 65.8752C96.875 66.5885 96.2967 67.1668 95.5833 67.1668H87.8333C87.1199 67.1668 86.5416 66.5885 86.5416 65.8752ZM74.9166 41.3335C74.2033 41.3335 73.625 41.9118 73.625 42.6252C73.625 43.3385 74.2033 43.9168 74.9166 43.9168L82.6666 43.9168C83.38 43.9168 83.9583 43.3385 83.9583 42.6252C83.9583 41.9118 83.38 41.3335 82.6666 41.3335L74.9166 41.3335ZM60.7083 42.6252C60.7083 41.9118 61.2866 41.3335 62 41.3335L69.75 41.3335C70.4633 41.3335 71.0416 41.9118 71.0416 42.6252C71.0416 43.3385 70.4633 43.9168 69.75 43.9168L62 43.9168C61.2866 43.9168 60.7083 43.3385 60.7083 42.6252ZM74.9166 49.0835C74.2033 49.0835 73.625 49.6618 73.625 50.3752C73.625 51.0885 74.2033 51.6668 74.9166 51.6668H82.6666C83.38 51.6668 83.9583 51.0885 83.9583 50.3752C83.9583 49.6618 83.38 49.0835 82.6666 49.0835L74.9166 49.0835ZM73.625 58.1252C73.625 57.4118 74.2033 56.8335 74.9166 56.8335H82.6666C83.38 56.8335 83.9583 57.4118 83.9583 58.1252C83.9583 58.8385 83.38 59.4168 82.6666 59.4168H74.9166C74.2033 59.4168 73.625 58.8385 73.625 58.1252ZM74.9166 64.5835C74.2033 64.5835 73.625 65.1618 73.625 65.8752C73.625 66.5885 74.2033 67.1668 74.9166 67.1668H82.6666C83.38 67.1668 83.9583 66.5885 83.9583 65.8752C83.9583 65.1618 83.38 64.5835 82.6666 64.5835H74.9166Z" fill="#020F66"/>
</g>
<defs>
<clipPath id="clip0_1824_91">
<rect width="124" height="124" fill="white"/>
</clipPath>
</defs>
</svg>
