<svg xmlns="http://www.w3.org/2000/svg" width="96" height="96" fill="none"><path fill="#79A1E9" d="M54 8a8 8 0 0 1 8-8h8a8 8 0 0 1 8 8v4H54V8Z"/><path fill="#175DDC" fill-rule="evenodd" d="M70 2h-8a6 6 0 0 0-6 6v2h20V8a6 6 0 0 0-6-6Zm-8-2a8 8 0 0 0-8 8v4h24V8a8 8 0 0 0-8-8h-8Z" clip-rule="evenodd"/><path fill="#79A1E9" d="M47 16a8 8 0 0 1 8-8h22a8 8 0 0 1 8 8v6H47v-6Z"/><path fill="#175DDC" fill-rule="evenodd" d="M77 10H55a6 6 0 0 0-6 6v4h34v-4a6 6 0 0 0-6-6ZM55 8a8 8 0 0 0-8 8v6h38v-6a8 8 0 0 0-8-8H55Z" clip-rule="evenodd"/><path fill="#79A1E9" d="M40 26a8 8 0 0 1 8-8h36a8 8 0 0 1 8 8v66H40V26Z"/><path fill="#175DDC" fill-rule="evenodd" d="M84 20H48a6 6 0 0 0-6 6v64h48V26a6 6 0 0 0-6-6Zm-36-2a8 8 0 0 0-8 8v66h52V26a8 8 0 0 0-8-8H48Z" clip-rule="evenodd"/><path fill="#AAC3EF" d="M4 44a8 8 0 0 1 8-8h38a8 8 0 0 1 8 8v48H4V44Z"/><path fill="#175DDC" fill-rule="evenodd" d="M50 38H12a6 6 0 0 0-6 6v46h50V44a6 6 0 0 0-6-6Zm-38-2a8 8 0 0 0-8 8v48h54V44a8 8 0 0 0-8-8H12Z" clip-rule="evenodd"/><path fill="#FFBF00" d="M68.677 60.435c1.928-3.316 6.718-3.316 8.645 0l16.31 28.052C95.57 91.82 93.165 96 89.309 96H56.691c-3.856 0-6.26-4.18-4.323-7.513l16.31-28.052Z"/><path fill="#175DDC" fill-rule="evenodd" d="M91.903 89.492 75.593 61.44c-1.156-1.99-4.03-1.99-5.187 0L54.097 89.492c-1.163 2 .28 4.508 2.594 4.508h32.618c2.314 0 3.757-2.508 2.594-4.508Zm-14.58-29.057c-1.928-3.316-6.718-3.316-8.645 0l-16.31 28.052C50.43 91.82 52.835 96 56.691 96h32.618c3.856 0 6.26-4.18 4.323-7.513l-16.31-28.052Z" clip-rule="evenodd"/><path fill="#175DDC" d="M75 88a2 2 0 1 1-4 0 2 2 0 0 1 4 0ZM70.06 70.553a.5.5 0 0 1 .496-.553h4.888a.5.5 0 0 1 .497.553l-1.393 13a.5.5 0 0 1-.497.447h-2.102a.5.5 0 0 1-.497-.447l-1.393-13Z"/><path fill="#79A1E9" d="M21 80a8 8 0 0 1 8-8h4a8 8 0 0 1 8 8v12H21V80Z"/><path fill="#175DDC" fill-rule="evenodd" d="M33 74h-4a6 6 0 0 0-6 6v10h16V80a6 6 0 0 0-6-6Zm-4-2a8 8 0 0 0-8 8v12h20V80a8 8 0 0 0-8-8h-4Z" clip-rule="evenodd"/><path fill="#F3F6F9" d="M13 46a1 1 0 0 1 1-1h8a1 1 0 0 1 1 1v8a1 1 0 0 1-1 1h-8a1 1 0 0 1-1-1v-8Z"/><path fill="#175DDC" fill-rule="evenodd" d="M15 47v6h6v-6h-6Zm-1-2a1 1 0 0 0-1 1v8a1 1 0 0 0 1 1h8a1 1 0 0 0 1-1v-8a1 1 0 0 0-1-1h-8Z" clip-rule="evenodd"/><path fill="#F3F6F9" d="M13 59a1 1 0 0 1 1-1h8a1 1 0 0 1 1 1v8a1 1 0 0 1-1 1h-8a1 1 0 0 1-1-1v-8Z"/><path fill="#175DDC" fill-rule="evenodd" d="M15 60v6h6v-6h-6Zm-1-2a1 1 0 0 0-1 1v8a1 1 0 0 0 1 1h8a1 1 0 0 0 1-1v-8a1 1 0 0 0-1-1h-8Z" clip-rule="evenodd"/><path fill="#F3F6F9" d="M26 46a1 1 0 0 1 1-1h8a1 1 0 0 1 1 1v8a1 1 0 0 1-1 1h-8a1 1 0 0 1-1-1v-8Z"/><path fill="#175DDC" fill-rule="evenodd" d="M28 47v6h6v-6h-6Zm-1-2a1 1 0 0 0-1 1v8a1 1 0 0 0 1 1h8a1 1 0 0 0 1-1v-8a1 1 0 0 0-1-1h-8Z" clip-rule="evenodd"/><path fill="#F3F6F9" d="M26 59a1 1 0 0 1 1-1h8a1 1 0 0 1 1 1v8a1 1 0 0 1-1 1h-8a1 1 0 0 1-1-1v-8Z"/><path fill="#175DDC" fill-rule="evenodd" d="M28 60v6h6v-6h-6Zm-1-2a1 1 0 0 0-1 1v8a1 1 0 0 0 1 1h8a1 1 0 0 0 1-1v-8a1 1 0 0 0-1-1h-8Z" clip-rule="evenodd"/><path fill="#F3F6F9" d="M39 59a1 1 0 0 1 1-1h8a1 1 0 0 1 1 1v8a1 1 0 0 1-1 1h-8a1 1 0 0 1-1-1v-8Z"/><path fill="#175DDC" fill-rule="evenodd" d="M41 60v6h6v-6h-6Zm-1-2a1 1 0 0 0-1 1v8a1 1 0 0 0 1 1h8a1 1 0 0 0 1-1v-8a1 1 0 0 0-1-1h-8Z" clip-rule="evenodd"/><path fill="#F3F6F9" d="M39 46a1 1 0 0 1 1-1h8a1 1 0 0 1 1 1v8a1 1 0 0 1-1 1h-8a1 1 0 0 1-1-1v-8Z"/><path fill="#175DDC" fill-rule="evenodd" d="M41 47v6h6v-6h-6Zm-1-2a1 1 0 0 0-1 1v8a1 1 0 0 0 1 1h8a1 1 0 0 0 1-1v-8a1 1 0 0 0-1-1h-8ZM47 27a1 1 0 0 1 1-1h6a1 1 0 1 1 0 2h-6a1 1 0 0 1-1-1Zm11-1a1 1 0 1 0 0 2h6a1 1 0 1 0 0-2h-6Zm9 1a1 1 0 0 1 1-1h6a1 1 0 1 1 0 2h-6a1 1 0 0 1-1-1Zm10 0a1 1 0 0 1 1-1h6a1 1 0 1 1 0 2h-6a1 1 0 0 1-1-1Zm0 6a1 1 0 0 1 1-1h6a1 1 0 1 1 0 2h-6a1 1 0 0 1-1-1Zm1 5a1 1 0 1 0 0 2h6a1 1 0 1 0 0-2h-6Zm-1 7a1 1 0 0 1 1-1h6a1 1 0 1 1 0 2h-6a1 1 0 0 1-1-1Zm1 5a1 1 0 1 0 0 2h6a1 1 0 1 0 0-2h-6ZM68 32a1 1 0 1 0 0 2h6a1 1 0 1 0 0-2h-6Zm-1 7a1 1 0 0 1 1-1h6a1 1 0 1 1 0 2h-6a1 1 0 0 1-1-1Zm1 5a1 1 0 1 0 0 2h6a1 1 0 1 0 0-2h-6Zm-1 7a1 1 0 0 1 1-1h6a1 1 0 1 1 0 2h-6a1 1 0 0 1-1-1Zm-9-19a1 1 0 1 0 0 2h6a1 1 0 1 0 0-2h-6Zm-11 1a1 1 0 0 1 1-1h6a1 1 0 1 1 0 2h-6a1 1 0 0 1-1-1Zm11 5a1 1 0 1 0 0 2h6a1 1 0 1 0 0-2h-6Zm-1 7a1 1 0 0 1 1-1h6a1 1 0 1 1 0 2h-6a1 1 0 0 1-1-1Zm1 5a1 1 0 1 0 0 2h6a1 1 0 1 0 0-2h-6Z" clip-rule="evenodd"/></svg>