<svg width="50" height="50" viewBox="0 0 50 50" fill="none" xmlns="http://www.w3.org/2000/svg">
<rect width="50" height="50" rx="25" fill="#787B80" fill-opacity="0.2"/>
<circle cx="25" cy="25" r="25" fill="#0055D4"/>
<path d="M18.1519 25.0068C18.1519 24.8021 18.2238 24.6278 18.3677 24.4839C18.5171 24.3345 18.6914 24.2598 18.8906 24.2598H24.2612V18.8975C24.2612 18.6982 24.3332 18.5267 24.4771 18.3828C24.6209 18.2334 24.7952 18.1587 25 18.1587C25.2048 18.1587 25.3791 18.2334 25.5229 18.3828C25.6724 18.5267 25.7471 18.6982 25.7471 18.8975V24.2598H31.1094C31.3086 24.2598 31.4801 24.3345 31.624 24.4839C31.7734 24.6278 31.8481 24.8021 31.8481 25.0068C31.8481 25.2116 31.7734 25.3859 31.624 25.5298C31.4801 25.6737 31.3086 25.7456 31.1094 25.7456H25.7471V31.1162C25.7471 31.3154 25.6724 31.487 25.5229 31.6309C25.3791 31.7803 25.2048 31.855 25 31.855C24.7952 31.855 24.6209 31.7803 24.4771 31.6309C24.3332 31.487 24.2612 31.3154 24.2612 31.1162V25.7456H18.8906C18.6914 25.7456 18.5171 25.6737 18.3677 25.5298C18.2238 25.3859 18.1519 25.2116 18.1519 25.0068Z" fill="white"/>
</svg>
