<svg width="23" height="16" viewBox="0 0 23 16" fill="none" xmlns="http://www.w3.org/2000/svg">
<path d="M9.14904 8.08324C9.53404 7.77044 9.8118 7.34958 9.94311 6.8777C10.0744 6.40583 10.0545 5.90576 9.88536 5.44529C9.71554 4.98483 9.40548 4.58678 8.99573 4.30487C8.58598 4.02295 8.09786 3.87058 7.59736 3.86924C7.09617 3.86789 6.60736 4.01691 6.19623 4.29614C5.78511 4.57537 5.4723 4.97207 5.29973 5.4312C5.12717 5.89032 5.1038 6.39039 5.23305 6.86294C5.3623 7.33548 5.63661 7.75836 6.01955 8.07317C5.42898 8.31683 4.90786 8.69608 4.49948 9.17869C4.09111 9.66131 3.80786 10.2325 3.67379 10.844C3.64011 10.9971 3.64217 11.1561 3.68067 11.3085C3.71917 11.4609 3.79067 11.6032 3.89242 11.7247C3.99142 11.8448 4.11723 11.9415 4.26023 12.0079C4.40323 12.0744 4.55929 12.1086 4.71742 12.1086H10.4292C10.5873 12.1093 10.7434 12.0744 10.8864 12.0079C11.0294 11.9415 11.1545 11.8448 11.2542 11.7247C11.3559 11.6032 11.4281 11.4609 11.4666 11.3085C11.5051 11.1561 11.5072 10.9971 11.4742 10.844C11.3408 10.2359 11.0603 9.66802 10.6554 9.18742C10.2504 8.70681 9.73411 8.32824 9.14904 8.08257V8.08324ZM7.58979 4.82507C7.88198 4.82507 8.16729 4.90965 8.40998 5.06806C8.65267 5.22647 8.84242 5.452 8.9538 5.71513C9.06586 5.97892 9.09473 6.26822 9.03767 6.54813C8.98061 6.82803 8.84036 7.08444 8.63342 7.28649C8.42717 7.48786 8.16386 7.62546 7.87717 7.68117C7.59048 7.73688 7.29348 7.70802 7.02398 7.59928C6.75379 7.48987 6.52348 7.30528 6.36123 7.06833C6.19898 6.83139 6.11236 6.55216 6.11236 6.26755C6.11304 5.88495 6.26842 5.51846 6.54548 5.24862C6.82254 4.97879 7.19792 4.82642 7.58911 4.82574L7.58979 4.82507ZM10.4292 11.1696H4.71742L4.61567 11.0353C4.76211 10.3762 5.13542 9.78549 5.67304 9.36194C6.21067 8.93839 6.88098 8.70749 7.57192 8.70749C8.26286 8.70749 8.93317 8.93839 9.47079 9.36194C10.0084 9.78549 10.3817 10.3755 10.5282 11.0353L10.4292 11.1696ZM13.7883 5.74198H17.2382C17.3599 5.73325 17.4733 5.67955 17.5558 5.59229C17.6383 5.50503 17.6844 5.39092 17.6844 5.27211C17.6844 5.15331 17.6383 5.03852 17.5558 4.95194C17.4733 4.86468 17.3599 4.81165 17.2382 4.80225H13.7883C13.6673 4.81098 13.5539 4.86468 13.4707 4.95194C13.3875 5.0392 13.3421 5.15331 13.3421 5.27211C13.3421 5.39092 13.3882 5.5057 13.4707 5.59229C13.5532 5.67888 13.6666 5.73258 13.7883 5.74198ZM18.7328 10.2527H13.7828C13.6611 10.2614 13.5477 10.3151 13.4652 10.4024C13.3827 10.4896 13.3366 10.6037 13.3366 10.7225C13.3366 10.8413 13.3827 10.9554 13.4652 11.0427C13.5477 11.13 13.6611 11.183 13.7828 11.1924H18.7328C18.8538 11.1837 18.9672 11.13 19.0504 11.0427C19.1336 10.9554 19.179 10.8413 19.179 10.7225C19.179 10.6037 19.1329 10.4889 19.0504 10.4024C18.9679 10.3151 18.8545 10.2621 18.7328 10.2527ZM18.7328 7.52746H13.7828C13.6549 7.52746 13.5325 7.57713 13.4425 7.66506C13.3524 7.75299 13.3015 7.87247 13.3015 7.99732C13.3015 8.12217 13.3524 8.24165 13.4425 8.32958C13.5325 8.41751 13.6549 8.46718 13.7828 8.46718H18.7328C18.8607 8.46718 18.983 8.41751 19.0731 8.32958C19.1632 8.24165 19.214 8.12217 19.214 7.99732C19.214 7.87247 19.1632 7.75299 19.0731 7.66506C18.983 7.57713 18.8607 7.52746 18.7328 7.52746ZM21.2917 0.61644H2.04167C1.67729 0.61644 1.32736 0.75807 1.06954 1.00978C0.811732 1.26149 0.66667 1.60315 0.66667 1.95891V14.0411C0.66667 14.3969 0.811732 14.7385 1.06954 14.9902C1.32736 15.2419 1.67729 15.3836 2.04167 15.3836H21.2917C21.656 15.3836 22.006 15.2419 22.2638 14.9902C22.5216 14.7385 22.6667 14.3969 22.6667 14.0411V1.95891C22.6667 1.60315 22.5216 1.26149 22.2638 1.00978C22.006 0.75807 21.656 0.61644 21.2917 0.61644ZM20.6042 14.0411H2.72917C2.54698 14.0411 2.37167 13.9706 2.24311 13.8444C2.11454 13.7182 2.04167 13.5477 2.04167 13.3699V2.63014C2.04167 2.45226 2.11386 2.2811 2.24311 2.15558C2.37236 2.03006 2.54698 1.95891 2.72917 1.95891H20.7073C20.8283 1.98576 21.282 2.11463 21.2917 2.53885V13.3699C21.2917 13.5477 21.2195 13.7189 21.0902 13.8444C20.961 13.97 20.7864 14.0411 20.6042 14.0411Z" fill="#175DDC"/>
</svg>
