<svg width="22" height="22" viewBox="0 0 22 22" fill="none" xmlns="http://www.w3.org/2000/svg">
<g clip-path="url(#clip0_400_16735)">
<path d="M10.9999 18.1225C10.8178 18.1225 10.6424 18.0503 10.5139 17.921C10.3853 17.7918 10.3124 17.6171 10.3124 17.4349V9.18485C10.3124 9.00266 10.3846 8.82735 10.5139 8.69878C10.6431 8.57022 10.8178 8.49734 10.9999 8.49734C11.1821 8.49734 11.3575 8.56953 11.486 8.69878C11.6146 8.82804 11.6875 9.00266 11.6875 9.18485V17.4349C11.6875 17.6171 11.6153 17.7918 11.486 17.921C11.3568 18.0503 11.1821 18.1225 10.9999 18.1225ZM10.9999 6.10344C11.4503 6.10344 11.8153 5.73837 11.8153 5.28806C11.8153 4.83774 11.4503 4.47267 10.9999 4.47267C10.5496 4.47267 10.1846 4.83774 10.1846 5.28806C10.1846 5.73837 10.5496 6.10344 10.9999 6.10344ZM10.9999 22C8.824 22 6.69755 21.3551 4.88873 20.1465C3.07991 18.9378 1.66984 17.2198 0.837277 15.2095C0.00471096 13.1992 -0.213227 10.9875 0.211649 8.85416C0.636526 6.72082 1.68359 4.76005 3.22223 3.2221C4.76086 1.68345 6.72093 0.636378 8.85425 0.211498C10.9876 -0.213381 13.2 0.00524609 15.2095 0.837131C17.2198 1.6697 18.9372 3.07978 20.1465 4.88861C21.3558 6.69745 22 8.8246 22 10.9999C21.9966 13.9163 20.8367 16.7124 18.7742 18.7742C16.7117 20.836 13.9163 21.9966 10.9999 22ZM10.9999 1.37476C9.09625 1.37476 7.23518 1.93921 5.65255 2.99659C4.06992 4.05398 2.83585 5.55756 2.10778 7.31621C1.37903 9.07485 1.18859 11.0102 1.55984 12.8775C1.93109 14.7447 2.84822 16.4594 4.19367 17.8055C5.5398 19.1517 7.25443 20.0681 9.12169 20.4394C10.9889 20.8106 12.9243 20.6202 14.6829 19.8914C16.4415 19.1627 17.9451 17.9293 19.0025 16.3466C20.0599 14.764 20.6243 12.9029 20.6243 10.9992C20.6216 8.44716 19.6061 6.001 17.8021 4.19629C15.9981 2.39159 13.5513 1.37682 10.9993 1.37407L10.9999 1.37476Z" fill="#0055D4"/>
</g>
<defs>
<clipPath id="clip0_400_16735">
<rect width="22" height="22" fill="white"/>
</clipPath>
</defs>
</svg>
