<svg width="22" height="22" viewBox="0 0 22 22" fill="none" xmlns="http://www.w3.org/2000/svg">
<g clip-path="url(#clip0_1036_196)">
<path fill-rule="evenodd" clip-rule="evenodd" d="M18.2951 17.2789C16.53 19.3278 13.9165 20.625 11 20.625C9.46553 20.625 8.01493 20.2659 6.72764 19.6272C6.7546 19.5649 6.78079 19.5051 6.80542 19.4489L6.80551 19.4487L6.80599 19.4476C6.83391 19.3838 6.85982 19.3247 6.88259 19.2715C6.90792 19.2124 6.93378 19.1511 6.96032 19.0882L6.96048 19.0878L6.96059 19.0876L6.96078 19.0871L6.96079 19.0871L6.96081 19.087C7.06175 18.8478 7.17264 18.585 7.30249 18.3256C7.4679 17.995 7.6452 17.7101 7.83329 17.523C7.86584 17.4907 7.95897 17.4352 8.17515 17.3887C8.38128 17.3445 8.64396 17.3193 8.95842 17.3019C9.13016 17.2924 9.31762 17.2855 9.5147 17.2782L9.5149 17.2781L9.51506 17.2781C10.0119 17.2597 10.57 17.239 11.0915 17.1698C11.4823 17.118 11.7964 17.0156 12.0316 16.8504C12.279 16.6766 12.4186 16.4469 12.4689 16.1965C12.5162 15.9613 12.4796 15.7351 12.4319 15.5575C12.3889 15.3974 12.3275 15.2459 12.2838 15.1379L12.2838 15.1379L12.2701 15.1041C12.2094 14.953 12.1481 14.8311 12.0893 14.7142L12.0893 14.7142C11.9331 14.4035 11.7948 14.1283 11.7315 13.4359C11.6944 13.0306 11.8433 12.575 12.0438 12.0941C12.0785 12.011 12.1164 11.9232 12.1545 11.8349L12.1545 11.8348C12.2171 11.6899 12.28 11.5441 12.3294 11.4171C12.4082 11.2147 12.4888 10.9749 12.4888 10.7495C12.4888 10.5278 12.4179 10.2914 12.3231 10.0793C12.2254 9.8607 12.0884 9.63681 11.9255 9.43426C11.6187 9.05296 11.1348 8.64631 10.565 8.64631C10.017 8.64631 9.31175 8.8449 8.71297 9.07951C8.40719 9.19932 8.11503 9.33409 7.86756 9.46902C7.62773 9.59978 7.40334 9.74487 7.25388 9.89117C6.09693 11.0237 5.41098 11.3512 5.00078 11.3747C4.65561 11.3944 4.4056 11.1974 4.08476 10.7555C4.00709 10.6485 3.93062 10.5349 3.84908 10.4134L3.84065 10.4008L3.84063 10.4008L3.84059 10.4007C3.76294 10.2851 3.6806 10.1624 3.59467 10.0428C3.41779 9.79655 3.2085 9.53833 2.94545 9.33597C2.67541 9.12823 2.34952 8.97998 1.9511 8.95495C1.83429 8.94761 1.71418 8.95105 1.59045 8.96541C1.97328 7.18645 2.8478 5.59021 4.06476 4.32593C4.13323 4.72956 4.24678 5.06393 4.4037 5.33573C4.68908 5.83005 5.10177 6.08852 5.55667 6.1795C6.06153 6.28047 6.62336 6.10675 7.12527 5.92493C7.28037 5.86875 7.43401 5.81002 7.58773 5.75126L7.58774 5.75126C7.97254 5.60418 8.3578 5.45692 8.76764 5.34888C9.08961 5.264 9.4906 5.28212 9.96031 5.36393C10.2896 5.42128 10.6192 5.50283 10.957 5.58639L10.957 5.58641L10.9571 5.58642L10.9572 5.58645C11.1044 5.62287 11.2532 5.65968 11.4041 5.69503C11.8765 5.80566 12.3784 5.90392 12.8178 5.86874C13.2844 5.83139 13.7305 5.6364 13.9814 5.13448C14.1388 4.81978 14.1359 4.51937 14.0102 4.2488C13.9025 4.0169 13.7122 3.83014 13.5742 3.6953C13.2514 3.37991 13.0625 3.19171 13.0625 2.88751C13.0625 2.73977 13.1077 2.6507 13.1743 2.5775C13.2529 2.49103 13.375 2.41301 13.5511 2.32809C13.6245 2.29265 13.6991 2.25973 13.7798 2.22416L13.824 2.20464C13.918 2.16305 14.0208 2.11685 14.1183 2.06552C14.1761 2.0351 14.2392 1.99936 14.3026 1.95657C16.712 2.83669 18.671 4.65215 19.7402 6.96343C19.7273 6.96186 19.7144 6.96032 19.7014 6.95879C19.2295 6.90345 18.7827 6.89383 18.3788 7.03162C17.955 7.1762 17.628 7.46471 17.3607 7.90348C17.209 8.15262 17.0077 8.40934 16.7847 8.69381L16.7847 8.69383L16.7846 8.69388C16.7459 8.74333 16.7064 8.79361 16.6665 8.84484C16.408 9.17646 16.1298 9.54598 15.9439 9.92821C15.7564 10.3139 15.639 10.7606 15.7681 11.2287C15.8974 11.6972 16.2492 12.0993 16.8094 12.4497C16.9327 12.5268 17.089 12.582 17.2009 12.6216L17.2259 12.6304C17.3601 12.6781 17.4679 12.718 17.5587 12.7689C17.6461 12.8179 17.6904 12.8626 17.7138 12.9031C17.7339 12.9378 17.7598 13.0055 17.7411 13.1455C17.6821 13.5885 17.6554 14.0062 17.6767 14.3645C17.6971 14.7081 17.7645 15.0599 17.9475 15.3174C18.0938 15.5233 18.0959 15.8144 18.0819 16.2441L18.0815 16.2563V16.2563C18.0756 16.4377 18.0681 16.666 18.1083 16.8667C18.1357 17.0032 18.1903 17.1522 18.2951 17.2789ZM19.9844 17.3482C21.254 15.5548 22 13.3645 22 11C22 4.92487 17.0751 0 11 0C4.92487 0 0 4.92487 0 11C0 15.1203 2.26541 18.7115 5.61863 20.596V20.7059H5.81891C7.36279 21.5317 9.12671 22 11 22C14.6769 22 17.9325 20.1959 19.9298 17.4246C19.9514 17.4018 19.9714 17.3776 19.9897 17.3519L19.9844 17.3482ZM6.00192 19.2272C6.02086 19.1837 6.03908 19.1421 6.05605 19.1033L6.05606 19.1033C6.08251 19.0429 6.10591 18.9895 6.12423 18.9467C6.14646 18.8948 6.17016 18.8386 6.19524 18.7791L6.1956 18.7783C6.29717 18.5374 6.42157 18.2424 6.56472 17.9563C6.74222 17.6017 6.96738 17.2206 7.25157 16.938C7.45516 16.7356 7.73986 16.6384 8.00186 16.5821C8.27392 16.5237 8.58979 16.496 8.91291 16.4782C9.11496 16.467 9.32076 16.4594 9.52854 16.4517C10.0101 16.4339 10.5023 16.4157 10.9831 16.352C11.3008 16.3099 11.4707 16.2362 11.5573 16.1753C11.6317 16.1231 11.6515 16.0769 11.6601 16.0338C11.6719 15.9755 11.6671 15.8905 11.6352 15.7717C11.606 15.663 11.5635 15.5578 11.5178 15.4443L11.5047 15.412C11.4694 15.3243 11.4248 15.2358 11.3756 15.1384L11.3756 15.1384C11.2082 14.8067 10.9886 14.3717 10.9099 13.511C10.8525 12.883 11.0815 12.2584 11.2824 11.7766C11.327 11.6696 11.3687 11.5731 11.4078 11.4829L11.4078 11.4829C11.4642 11.3524 11.515 11.2351 11.5606 11.118C11.6383 10.9183 11.6638 10.8059 11.6638 10.7495C11.6638 10.6894 11.6404 10.5736 11.5699 10.4159C11.5023 10.2646 11.4031 10.1011 11.2827 9.95139C11.0227 9.62823 10.7509 9.47131 10.565 9.47131C10.1731 9.47131 9.58331 9.62456 9.01394 9.84765C8.73564 9.95669 8.47544 10.0772 8.26249 10.1934C8.0419 10.3136 7.89782 10.4153 7.83098 10.4807C6.66582 11.6213 5.78731 12.156 5.04794 12.1983C4.24353 12.2444 3.75885 11.7108 3.41714 11.2401C3.32917 11.119 3.24451 10.993 3.16408 10.8732L3.15848 10.8648C3.07868 10.7459 3.00279 10.6329 2.92465 10.5241C2.76347 10.2998 2.60989 10.1187 2.44242 9.98987C2.28193 9.8664 2.10963 9.79154 1.89937 9.77833C1.77438 9.77048 1.62493 9.78377 1.44517 9.83187C1.39884 10.2148 1.375 10.6046 1.375 11C1.375 14.4855 3.22765 17.5382 6.00192 19.2272ZM18.9019 16.4969C18.9017 16.4334 18.9036 16.3591 18.9064 16.271L18.9083 16.2168C18.921 15.8571 18.9409 15.2911 18.62 14.8395C18.5746 14.7757 18.5181 14.6166 18.5002 14.3155C18.4832 14.029 18.5038 13.6681 18.5589 13.2545C18.5973 12.9661 18.5543 12.7089 18.4283 12.4906C18.3055 12.2779 18.1264 12.1413 17.9619 12.0492C17.8021 11.9596 17.6309 11.8988 17.5051 11.8541L17.5021 11.853C17.3545 11.8006 17.2854 11.7743 17.2469 11.7502C16.7876 11.463 16.6182 11.2078 16.5634 11.0093C16.5085 10.8103 16.5443 10.5801 16.6858 10.289C16.8291 9.99442 17.0559 9.68723 17.3172 9.35205C17.3534 9.30558 17.3904 9.25841 17.4279 9.21068L17.4282 9.21034C17.6493 8.92865 17.8859 8.62725 18.0653 8.33264C18.2546 8.02184 18.4412 7.88202 18.6452 7.81243C18.8691 7.73606 19.1642 7.72644 19.6054 7.77818C19.7815 7.79884 19.9469 7.82423 20.0983 7.8516C20.4396 8.83812 20.625 9.89741 20.625 11C20.625 13.0436 19.9881 14.9385 18.9019 16.4969ZM13.136 1.61285C12.449 1.45718 11.7341 1.375 11 1.375C8.64733 1.375 6.49182 2.2191 4.81979 3.62098C4.84982 4.25642 4.96937 4.66549 5.11818 4.92325C5.2797 5.20302 5.48579 5.32399 5.71845 5.37052C5.96728 5.42028 6.32074 5.33891 6.84428 5.14926C6.97229 5.10289 7.10933 5.05051 7.25321 4.99551L7.25322 4.99551L7.25324 4.9955L7.25327 4.99549C7.65121 4.84339 8.10142 4.67132 8.55735 4.55113C9.05298 4.42048 9.59537 4.46295 10.1019 4.55116C10.4611 4.61373 10.8368 4.70663 11.1866 4.79314L11.1866 4.79315C11.3269 4.82784 11.463 4.8615 11.5922 4.89177C12.0688 5.00336 12.4557 5.0701 12.752 5.04637C13.0212 5.02482 13.1578 4.93699 13.2435 4.76553C13.2924 4.66773 13.2781 4.63106 13.262 4.5963C13.2279 4.52288 13.1518 4.43605 12.9976 4.28537C12.9805 4.26862 12.9623 4.25111 12.9433 4.23281C12.6728 3.97208 12.2375 3.55254 12.2375 2.88751C12.2375 2.52731 12.3641 2.24209 12.564 2.02239C12.7344 1.83496 12.9471 1.70765 13.136 1.61285Z" fill="#0055D4"/>
</g>
<defs>
<clipPath id="clip0_1036_196">
<rect width="22" height="22" fill="white"/>
</clipPath>
</defs>
</svg>
