<svg width="16" height="16" viewBox="0 0 16 16" fill="none" xmlns="http://www.w3.org/2000/svg">
<path fill-rule="evenodd" clip-rule="evenodd" d="M2.64645 2.64645C2.84171 2.45118 3.15829 2.45118 3.35355 2.64645L13.3536 12.6464C13.5488 12.8417 13.5488 13.1583 13.3536 13.3536C13.1583 13.5488 12.8417 13.5488 12.6464 13.3536L2.64645 3.35355C2.45118 3.15829 2.45118 2.84171 2.64645 2.64645Z" fill="white" style="fill:white;fill:white;fill-opacity:1;"/>
<path fill-rule="evenodd" clip-rule="evenodd" d="M2.64656 13.3536C2.4513 13.1584 2.4513 12.8418 2.64656 12.6465L12.6466 2.64652C12.8418 2.45126 13.1584 2.45126 13.3537 2.64652C13.5489 2.84178 13.5489 3.15836 13.3537 3.35363L3.35366 13.3536C3.1584 13.5489 2.84182 13.5489 2.64656 13.3536Z" fill="white" style="fill:white;fill:white;fill-opacity:1;"/>
</svg>
