<svg width="22" height="22" viewBox="0 0 22 22" fill="none" xmlns="http://www.w3.org/2000/svg">
<path d="M10.9999 21.8626C8.824 21.8626 6.69755 21.2258 4.88873 20.0323C3.07991 18.8388 1.66984 17.1422 0.837277 15.157C0.00471096 13.1719 -0.213227 10.9879 0.211649 8.88119C0.636526 6.77454 1.68359 4.83829 3.22223 3.31957C4.76086 1.80017 6.72093 0.766191 8.85425 0.346625C10.9876 -0.072941 13.2 0.142952 15.2095 0.964432C17.2198 1.78659 18.9372 3.17903 20.1465 4.96525C21.3558 6.75146 22 8.852 22 11.0001C21.9966 13.88 20.8367 16.6411 18.7742 18.6772C16.7117 20.7132 13.9163 21.8592 10.9999 21.8626ZM10.9999 1.49534C9.09625 1.49534 7.23518 2.05272 5.65255 3.09689C4.06992 4.14105 2.83585 5.62582 2.10778 7.36247C1.37903 9.09912 1.18859 11.0103 1.55984 12.8542C1.93109 14.6981 2.84822 16.3913 4.19367 17.7206C5.5398 19.0499 7.25443 19.9549 9.12169 20.3215C10.9889 20.6881 12.9243 20.5 14.6829 19.7804C16.4415 19.0608 17.9451 17.8428 19.0025 16.2799C20.0599 14.7171 20.6243 12.8793 20.6243 10.9994C20.6216 8.47928 19.6061 6.06372 17.8021 4.28158C15.9981 2.49945 13.5513 1.49738 10.9993 1.49466L10.9999 1.49534ZM8.31869 14.3566C8.18119 14.3566 8.04644 14.3159 7.933 14.2398C7.81956 14.1638 7.73087 14.0552 7.68 13.9289C7.62912 13.8026 7.61743 13.6641 7.647 13.5317C7.67656 13.3993 7.746 13.2785 7.84568 13.1848L10.3468 10.8426V3.98422C10.3468 3.80431 10.419 3.63119 10.5483 3.50423C10.6775 3.37728 10.8521 3.30531 11.0343 3.30531C11.2165 3.30531 11.3911 3.3766 11.5204 3.50423C11.6496 3.63187 11.7218 3.80431 11.7218 3.98422V11.1359C11.7218 11.2282 11.7026 11.3192 11.6655 11.4033C11.6283 11.4875 11.5747 11.5642 11.5073 11.6274L8.79169 14.1692C8.66381 14.2894 8.49469 14.3566 8.31869 14.3566Z" fill="#8E8E93"/>
</svg>
