<svg width="564" height="668" viewBox="0 0 564 668" fill="none" xmlns="http://www.w3.org/2000/svg">
<path d="M554.855 9.00044C552.303 6.35463 549.245 4.25048 545.849 2.813C542.454 1.37551 538.805 0.646349 535.114 0.667182H28.9281C25.2372 0.646349 21.5673 1.37551 18.1717 2.813C14.776 4.25048 11.7178 6.35463 9.18687 9.00044C6.50831 11.5004 4.37811 14.5421 2.92282 17.8962C1.46754 21.2503 0.729348 24.8545 0.75044 28.5003V361.831C0.855895 387.205 5.83339 412.33 15.4298 435.872C24.5623 459.101 36.8373 481.017 51.9174 500.996C67.4194 521.017 84.7773 539.537 103.759 556.371C121.37 572.329 139.93 587.266 159.313 601.078C176.186 612.912 193.903 624.12 212.463 634.703C231.023 645.286 244.12 652.432 251.776 656.161C259.496 659.911 265.739 662.87 270.379 664.828C274.006 666.557 277.993 667.411 282.021 667.328C285.986 667.39 289.909 666.474 293.452 664.703C298.177 662.661 304.335 659.786 312.139 656.036C319.943 652.286 333.23 645.12 351.453 634.578C369.676 624.037 387.603 612.787 404.602 600.953C424.006 587.12 442.588 572.204 460.241 556.246C479.244 539.433 496.602 520.892 512.083 500.871C527.142 480.871 539.417 458.976 548.57 435.747C558.188 412.205 563.165 387.08 563.25 361.706V28.3753C563.271 24.7503 562.532 21.167 561.077 17.8337C559.622 14.5004 557.513 11.5004 554.855 9.00044V9.00044ZM489.6 364.872C489.6 485.704 282.021 589.495 282.021 589.495V72.0832H489.6V364.872Z" fill="white" style="fill:white;fill-opacity:1;"/>
</svg>
