<svg width="23" height="16" viewBox="0 0 23 16" fill="none" xmlns="http://www.w3.org/2000/svg">
<path d="M20.4779 0.533615H2.18882C1.67055 0.562802 1.1846 0.79358 0.837484 1.17504C0.490371 1.55651 0.310285 2.05811 0.335717 2.56989V13.4301C0.310285 13.9425 0.490371 14.4434 0.837484 14.8249C1.1846 15.2064 1.66987 15.4371 2.18882 15.4663H20.4724C20.992 15.4385 21.4787 15.2084 21.8271 14.8269C22.1756 14.4455 22.3564 13.9432 22.331 13.4301V2.56989C22.3564 2.05743 22.1763 1.55651 21.8292 1.17504C21.4821 0.79358 20.9961 0.562802 20.4779 0.533615ZM2.19432 1.89113H20.4779C20.6504 1.90132 20.8112 1.97869 20.9267 2.10562C21.0422 2.23255 21.102 2.39953 21.0937 2.56989V3.79166C21.102 3.93895 21.0504 4.08285 20.9508 4.19213C20.8511 4.30141 20.7123 4.36793 20.5631 4.37675H2.10221C1.95374 4.36793 1.8149 4.30141 1.71523 4.19213C1.61557 4.08285 1.5647 3.93895 1.57295 3.79166V2.56989C1.5647 2.39953 1.6245 2.23255 1.73998 2.10562C1.85545 1.97869 2.01629 1.90132 2.18882 1.89113H2.19432ZM20.4779 14.1007H2.18882C2.01767 14.0905 1.8582 14.0145 1.74273 13.8889C1.62725 13.7633 1.56676 13.5991 1.57295 13.4301V6.32751C1.56539 6.18022 1.61625 6.03632 1.71592 5.92704C1.81559 5.81776 1.95443 5.75124 2.10359 5.74242H20.5659C20.715 5.75056 20.8539 5.81708 20.9535 5.92704C21.0532 6.037 21.1047 6.1809 21.0965 6.32751V13.4301C21.1047 13.6011 21.0443 13.7681 20.9288 13.895C20.8133 14.0219 20.6511 14.0986 20.4779 14.1088V14.1007ZM18.8296 11.6042H15.5949C15.4781 11.6191 15.3709 11.6761 15.2932 11.763C15.2155 11.8499 15.1729 11.9626 15.1729 12.0793C15.1729 12.1954 15.2155 12.3081 15.2932 12.3956C15.3709 12.4832 15.4781 12.5395 15.5949 12.5545H18.8351C18.952 12.5395 19.0592 12.4825 19.1369 12.3956C19.2145 12.3087 19.2571 12.1961 19.2571 12.0793C19.2571 11.9633 19.2145 11.8506 19.1369 11.763C19.0592 11.6755 18.952 11.6191 18.8351 11.6042H18.8296Z" fill="#175DDC"/>
</svg>
