<svg width="64" height="65" viewBox="0 0 64 65" fill="none" xmlns="http://www.w3.org/2000/svg">
<g clip-path="url(#clip0_8211_6268)">
<path d="M10.832 22.1604C14.8678 13.355 23.8485 7.2293 34.2752 7.2293C48.4779 7.2293 59.9915 18.5926 59.9915 32.61C59.9915 46.6274 48.4779 57.9908 34.2752 57.9908C23.6247 57.9908 14.4819 51.6003 10.5772 42.4847C10.1476 41.4818 8.97554 41.0124 7.95931 41.4365C6.94309 41.8605 6.46755 43.0173 6.89717 44.0202C11.4049 54.5436 21.9632 61.934 34.2752 61.934C50.6845 61.934 63.9869 48.8052 63.9869 32.61C63.9869 16.4148 50.6845 3.28601 34.2752 3.28601C21.6775 3.28601 10.9146 11.0224 6.59135 21.9422L3.43982 16.3383C2.94497 15.4584 1.83048 15.1462 0.950547 15.641C0.0706142 16.1359 -0.241553 17.2504 0.253303 18.1303L5.41299 27.3051C5.90784 28.185 7.02233 28.4972 7.90226 28.0023L17.077 22.8426C17.9569 22.3478 18.2691 21.2333 17.7743 20.3533C17.2794 19.4734 16.1649 19.1612 15.285 19.6561L10.832 22.1604Z" fill="#175DDC"/>
<path d="M42.9005 41.7946C42.5737 42.0136 42.1855 42.131 41.7894 42.131C41.2823 42.131 40.7951 41.9374 40.4267 41.5912L32.6031 34.2683C32.409 34.0864 32.2546 33.8654 32.1476 33.6229C32.0406 33.3804 31.9852 33.1183 31.9852 32.8523V14.5923C31.9852 14.074 32.1932 13.5772 32.5655 13.2095C32.9379 12.8418 33.441 12.6364 33.9658 12.6364C34.4907 12.6364 34.9938 12.8437 35.3661 13.2095C35.7385 13.5752 35.9465 14.074 35.9465 14.5923V32.0073L43.152 38.7551C43.4392 39.025 43.6393 39.3732 43.7245 39.7546C43.8096 40.136 43.7759 40.535 43.6294 40.8988C43.4828 41.2626 43.2273 41.5755 42.9005 41.7946Z" fill="#175DDC"/>
</g>
<defs>
<clipPath id="clip0_8211_6268">
<rect width="63.9868" height="63.9868" fill="white" transform="translate(0.0065918 0.620117)"/>
</clipPath>
</defs>
</svg>
