<svg width="24" height="24" viewBox="0 0 24 24" fill="none" xmlns="http://www.w3.org/2000/svg">
<path d="M22.0079 13.5885L21.826 13.47C21.6756 13.3823 21.556 13.251 21.4831 13.0935C21.4102 12.936 21.3869 12.7598 21.4169 12.5895V11.4345C21.3846 11.2673 21.4072 11.094 21.4816 10.9403C21.556 10.7865 21.6771 10.6605 21.8275 10.581L22.0515 10.4685C22.6162 10.1378 23.0275 9.59929 23.1974 8.96854C23.3583 8.3438 23.2756 7.6808 22.9658 7.11456L21.7884 5.05807C21.459 4.50832 20.9305 4.10558 20.3117 3.93383C19.6928 3.76208 19.0319 3.83258 18.465 4.13258L18.259 4.23607C18.1048 4.31932 17.9312 4.35982 17.7552 4.35382C17.5793 4.34782 17.4093 4.29457 17.262 4.20007C16.9289 3.97583 16.5762 3.78083 16.2093 3.61808C16.0552 3.54158 15.9259 3.42308 15.8349 3.27683C15.7439 3.13058 15.6973 2.96183 15.698 2.79008V2.48409C15.7025 2.15784 15.6416 1.83384 15.5191 1.53084C15.3965 1.22785 15.2138 0.953347 14.983 0.721599C14.7522 0.48985 14.477 0.306851 14.1739 0.183102C13.8709 0.0593531 13.5469 -0.00289649 13.219 0.000103493H10.813C10.4867 -0.00214649 10.1626 0.0608531 9.86033 0.185352C9.55807 0.309851 9.28438 0.49285 9.0543 0.724599C8.82423 0.955597 8.64302 1.23085 8.52046 1.53309C8.3979 1.83534 8.33775 2.15859 8.34226 2.48484V2.74133C8.34377 2.91083 8.2979 3.07733 8.21068 3.22208C8.12346 3.36683 7.99714 3.48533 7.84601 3.56333C7.57909 3.68483 7.32044 3.82358 7.07156 3.97883L6.78584 4.14683C6.63998 4.25107 6.46704 4.31032 6.28809 4.31632C6.10914 4.32232 5.93169 4.27732 5.77831 4.18433L5.59184 4.09283C5.31664 3.92783 5.00987 3.82208 4.69182 3.78158C4.37377 3.74108 4.0497 3.76658 3.74218 3.85733C3.11059 4.03133 2.57298 4.44682 2.24591 5.01382L1.07296 7.06131C0.905284 7.3448 0.797012 7.65905 0.754906 7.9853C0.7128 8.31155 0.73686 8.64305 0.826335 8.96029C0.909044 9.26479 1.0519 9.54979 1.24664 9.79729C1.44138 10.0448 1.685 10.2518 1.96169 10.4048L2.09704 10.5383L2.15869 10.5818C2.30907 10.6695 2.42862 10.8008 2.50155 10.9583C2.57449 11.1158 2.5978 11.292 2.56772 11.4623V12.6203C2.58276 12.786 2.55268 12.9525 2.4805 13.1025C2.40832 13.2525 2.29629 13.38 2.15719 13.4708L1.93312 13.5833C1.38198 13.9215 0.981225 14.4563 0.811298 15.0795C0.64137 15.7027 0.716559 16.3657 1.02032 16.9357L2.19929 18.9922C2.51885 19.5525 3.04818 19.9642 3.67075 20.1382C4.29332 20.3122 4.95949 20.2335 5.52417 19.9192L5.72868 19.8172C5.88357 19.7332 6.05726 19.6927 6.2332 19.698C6.40914 19.7032 6.57982 19.7565 6.7287 19.8502C7.06179 20.0752 7.41367 20.2702 7.78135 20.4322C7.93549 20.5087 8.06481 20.6272 8.15579 20.7735C8.24677 20.9197 8.29339 21.0885 8.29264 21.2602V21.5167C8.28813 21.843 8.34828 22.1662 8.47084 22.4685C8.59339 22.7707 8.7746 23.0459 9.00543 23.2769C9.23551 23.5087 9.50995 23.6917 9.81221 23.8154C10.1145 23.9392 10.4385 24.0022 10.7656 23.9999H13.1717C13.4987 24.0022 13.8228 23.9399 14.1251 23.8154C14.4273 23.6909 14.7018 23.5079 14.9319 23.2769C15.1619 23.0452 15.3439 22.7707 15.4664 22.4685C15.589 22.1662 15.6499 21.8422 15.6446 21.516V21.2595C15.6431 21.09 15.689 20.9235 15.7762 20.7787C15.8635 20.634 15.9898 20.5155 16.1409 20.4375C16.4078 20.3175 16.6665 20.1787 16.9138 20.022L16.9785 19.9845L17.1996 19.854C17.3462 19.7505 17.5191 19.692 17.6988 19.6852C17.8785 19.6785 18.0552 19.7242 18.2086 19.8165L18.3951 19.908C18.677 20.0752 18.9898 20.1832 19.3146 20.226C19.6395 20.2687 19.9703 20.2455 20.2853 20.157C20.5951 20.0722 20.8846 19.9252 21.135 19.7235C21.3854 19.5217 21.5914 19.2712 21.7395 18.987L22.9124 16.9395C23.0771 16.6627 23.1831 16.3545 23.223 16.035C23.2628 15.7155 23.2373 15.3915 23.147 15.0825C22.9786 14.4548 22.5688 13.9178 22.0072 13.5885H22.0079ZM8.42723 19.0575C8.13173 18.9217 7.85203 18.756 7.59112 18.5625C7.17081 18.2775 6.67531 18.1207 6.16703 18.1125C5.74221 18.1087 5.32491 18.2257 4.964 18.45L4.73994 18.5625C4.64595 18.6217 4.53994 18.6592 4.43016 18.6727C4.32038 18.6862 4.20835 18.675 4.10233 18.6405C3.98203 18.6112 3.87 18.5572 3.77301 18.4815C3.67601 18.4057 3.59556 18.3097 3.53841 18.201L2.37448 16.1505C2.25869 15.9397 2.22486 15.693 2.27975 15.459C2.29629 15.3555 2.33689 15.258 2.39704 15.1725C2.45719 15.087 2.53764 15.0173 2.63013 14.9685C2.67374 14.952 2.76998 14.9355 2.82111 14.9205C2.85946 14.9108 2.89705 14.8988 2.93389 14.883C3.34217 14.652 3.67451 14.307 3.88955 13.8908C4.10459 13.4745 4.19407 13.005 4.14594 12.5385V11.529C4.18354 11.0595 4.0888 10.5893 3.87301 10.1708C3.65721 9.75229 3.32713 9.40204 2.92186 9.16054L2.72035 9.06304C2.61735 9.00679 2.52712 8.93029 2.45569 8.83729C2.38426 8.74429 2.33238 8.6378 2.30381 8.52455C2.27523 8.41055 2.27147 8.2928 2.29102 8.1773C2.31057 8.0618 2.35493 7.95155 2.4196 7.85405L3.59255 5.80806C3.72188 5.59582 3.92338 5.43607 4.15948 5.35807C4.2685 5.32282 4.38429 5.31232 4.49783 5.32807C4.61137 5.34382 4.72039 5.38432 4.81663 5.44657L5.00761 5.54107C5.41589 5.76381 5.87831 5.87181 6.34373 5.85156C6.80915 5.83131 7.26029 5.68581 7.64826 5.42857C7.91895 5.24482 8.20166 5.07982 8.4949 4.93507C8.91596 4.72582 9.27085 4.40557 9.52198 4.00883C9.77311 3.61208 9.90996 3.15383 9.91748 2.68509V2.48409C9.91522 2.36559 9.93703 2.24709 9.98139 2.13684C10.0258 2.02659 10.0919 1.92609 10.1769 1.84209C10.2611 1.75809 10.3618 1.69209 10.4724 1.64709C10.5829 1.60209 10.7017 1.58109 10.8205 1.58334H13.2266C13.3461 1.58034 13.4642 1.60209 13.5747 1.64634C13.6852 1.69059 13.786 1.75659 13.8702 1.84059C13.9544 1.92459 14.0206 2.02509 14.0657 2.13534C14.1108 2.24559 14.1318 2.36409 14.1288 2.48259V2.73908C14.1333 3.21008 14.2694 3.67058 14.5228 4.06808C14.7762 4.46557 15.1349 4.78507 15.5604 4.98907C15.8582 5.12557 16.1401 5.29207 16.4026 5.48707C16.7883 5.74206 17.2364 5.88756 17.6981 5.90856C18.1597 5.92956 18.6191 5.82456 19.0267 5.60557L19.2402 5.49757C19.4605 5.37532 19.7192 5.34457 19.962 5.41207C20.0658 5.44132 20.162 5.49082 20.2462 5.55757C20.3304 5.62432 20.3996 5.70756 20.4508 5.80206L21.6237 7.85855C21.6824 7.95305 21.7199 8.05955 21.7335 8.17055C21.747 8.28155 21.7365 8.3933 21.7019 8.49905C21.6748 8.6168 21.6222 8.72705 21.5493 8.82379C21.4763 8.92054 21.3831 8.99929 21.2763 9.05704L21.0598 9.16654C20.659 9.40579 20.3327 9.75229 20.1184 10.1663C19.9041 10.5803 19.8101 11.046 19.8477 11.511V12.5205C19.8131 12.99 19.9094 13.4595 20.1259 13.8773C20.3425 14.295 20.6703 14.6453 21.0733 14.889L21.2583 14.9805C21.4703 15.1118 21.6297 15.3127 21.7094 15.549C21.744 15.6562 21.7545 15.7695 21.7402 15.8812C21.726 15.993 21.6876 16.1002 21.6282 16.1955L20.4492 18.252C20.3944 18.3547 20.3192 18.4447 20.2274 18.5167C20.1357 18.5887 20.0312 18.642 19.9184 18.672C19.7974 18.7005 19.6718 18.7035 19.55 18.6802C19.4282 18.657 19.3124 18.6082 19.2101 18.537L18.977 18.4485C18.5688 18.2257 18.1071 18.1185 17.6417 18.1387C17.1763 18.159 16.7259 18.3045 16.3379 18.561C16.0672 18.7455 15.7845 18.912 15.4913 19.059C15.0695 19.2667 14.7138 19.587 14.4627 19.9845C14.2115 20.382 14.0754 20.8395 14.0687 21.309V21.5655C14.0709 21.684 14.0491 21.8025 14.0048 21.9127C13.9604 22.023 13.8942 22.1235 13.8093 22.2075C13.7251 22.2915 13.6243 22.3575 13.5138 22.4025C13.4033 22.4475 13.2852 22.4685 13.1657 22.4662H10.7656C10.6461 22.4692 10.528 22.4475 10.4167 22.4032C10.3055 22.359 10.2055 22.293 10.1212 22.209C10.037 22.125 9.97086 22.0245 9.9265 21.9142C9.88214 21.804 9.86109 21.6855 9.86334 21.5662V21.3097C9.85808 20.838 9.72123 20.3775 9.46709 19.9792C9.21295 19.581 8.85355 19.2615 8.42723 19.0567V19.0575ZM17.4244 12C17.4176 10.9305 17.0935 9.88729 16.4928 9.00154C15.892 8.1158 15.0424 7.4273 14.0499 7.02306C13.0574 6.61881 11.9671 6.51681 10.9167 6.72906C9.86635 6.94206 8.90242 7.4603 8.14677 8.2193C7.39112 8.97829 6.87757 9.94279 6.67155 10.992C6.46478 12.0413 6.57456 13.128 6.9866 14.115C7.39864 15.102 8.09414 15.9457 8.98663 16.539C9.87913 17.1322 10.9265 17.4487 11.9987 17.448C13.4424 17.442 14.8236 16.8645 15.8409 15.843C16.8582 14.8215 17.4274 13.4393 17.4244 12ZM11.9987 16.3365C11.1378 16.3425 10.2942 16.0927 9.57537 15.6195C8.85656 15.1463 8.29489 14.4713 7.9618 13.6793C7.62871 12.8873 7.53849 12.0143 7.7024 11.1713C7.86707 10.3283 8.27835 9.55279 8.88588 8.94379C9.49341 8.3348 10.2671 7.91855 11.1115 7.74905C11.9559 7.57955 12.8311 7.66355 13.6273 7.9913C14.4236 8.31905 15.104 8.87479 15.583 9.58804C16.0619 10.302 16.3176 11.1413 16.3176 12C16.3198 13.146 15.8665 14.2463 15.0567 15.0593C14.2469 15.8722 13.1476 16.3312 11.9987 16.3365Z" fill="#41484D"/>
</svg>
