<svg width="181" height="161" viewBox="0 0 181 161" fill="none" xmlns="http://www.w3.org/2000/svg">
<path d="M134.5 147H161.5V154.571C161.5 156.781 159.709 158.571 157.5 158.571H138.5C136.291 158.571 134.5 156.781 134.5 154.571V147Z" fill="#E5E5EA" stroke="#8E8E93" stroke-width="2"/>
<path d="M20.5 147H47.5V154.571C47.5 156.781 45.7091 158.571 43.5 158.571H24.5C22.2909 158.571 20.5 156.781 20.5 154.571V147Z" fill="#E5E5EA" stroke="#8E8E93" stroke-width="2"/>
<path d="M172.883 2H8.11702C5.01483 2 2.5 4.51501 2.5 7.61743V140.563C2.5 143.666 5.01483 146.181 8.11702 146.181H172.883C175.985 146.181 178.5 143.666 178.5 140.563V7.61743C178.5 4.51501 175.985 2 172.883 2Z" fill="#F2F2F7" stroke="#8E8E93" stroke-width="2"/>
<path d="M154.94 18H27.06C23.9893 18 21.5 20.4893 21.5 23.56V123.64C21.5 126.711 23.9893 129.2 27.06 129.2H154.94C158.011 129.2 160.5 126.711 160.5 123.64V23.56C160.5 20.4893 158.011 18 154.94 18Z" fill="#E5E5EA" stroke="#8E8E93" stroke-width="2" stroke-miterlimit="2"/>
<path d="M155.257 129.804L50.3928 135.922C47.1912 136.107 44.5 133.571 44.5 130.378V17.5536C44.5 14.3604 47.1912 11.8244 50.3928 12.0095L155.257 18.1274C158.199 18.3033 160.5 20.7282 160.5 23.6715V124.26C160.5 127.203 158.199 129.628 155.257 129.804Z" fill="#F2F2F7" stroke="#8E8E93" stroke-width="2" stroke-miterlimit="2"/>
<path d="M165.354 40.8676C165.354 38.5536 163.476 36.6777 161.159 36.6777C158.842 36.6777 156.964 38.5536 156.964 40.8676V57.627C156.964 59.941 158.842 61.8168 161.159 61.8168C163.476 61.8168 165.354 59.941 165.354 57.627V40.8676Z" fill="#F2F2F7" stroke="#8E8E93"/>
<path d="M165.354 82.766C165.354 80.452 163.476 78.5762 161.159 78.5762C158.842 78.5762 156.964 80.452 156.964 82.766V99.5254C156.964 101.839 158.842 103.715 161.159 103.715C163.476 103.715 165.354 101.839 165.354 99.5254V82.766Z" fill="#F2F2F7" stroke="#8E8E93"/>
<path d="M62.5 45C64.1575 45 65.5 46.2573 65.5 47.8095V86.4405C65.5 87.9927 64.1575 89.25 62.5 89.25" stroke="#8E8E93" stroke-width="2" stroke-linecap="round"/>
<path d="M109.5 86.2935C103.735 86.2935 99.0647 80.744 99.0647 73.9183C99.0647 67.0925 103.735 61.5544 109.5 61.5544C115.265 61.5544 119.924 67.1039 119.924 73.9183C119.924 80.7326 115.253 86.2935 109.5 86.2935ZM109.5 59.8337C102.947 59.8337 97.6176 66.1467 97.6176 73.9183C97.6176 81.6898 102.947 88.0142 109.5 88.0142C116.053 88.0142 121.371 81.7012 121.371 73.9183C121.371 66.1353 116.041 59.8337 109.5 59.8337Z" fill="#8E8E93"/>
<path d="M108.053 53.5321C104.382 53.8968 101.041 55.6403 98.3824 58.3068L99.3471 59.4577C99.6295 59.7881 99.7706 60.2326 99.7706 60.6656C99.7706 61.0986 99.6295 61.543 99.3471 61.8735C99.0765 62.2153 98.7001 62.3749 98.3354 62.3749C97.9707 62.3749 97.6059 62.2153 97.3236 61.8735L96.3589 60.7226C94.1001 63.8676 92.6412 67.8446 92.3354 72.209H93.7118C94.5001 72.209 95.1471 72.9724 95.1471 73.9069C95.1471 74.8413 94.5001 75.6161 93.7118 75.6161H92.3354C92.6412 79.9805 94.1118 83.9575 96.3589 87.1026L97.3236 85.9516C97.6059 85.6098 97.9707 85.4502 98.3354 85.4502C98.7001 85.4502 99.0765 85.6098 99.3471 85.9516C99.6295 86.2821 99.7706 86.7265 99.7706 87.1595C99.7706 87.5926 99.6295 88.037 99.3471 88.3674L98.3824 89.5183C101.041 92.1962 104.394 93.9397 108.065 94.293V92.652C108.065 91.7062 108.724 90.9428 109.512 90.9428C101.606 90.9428 95.1589 83.2965 95.1589 73.9069C95.1589 64.5172 101.606 56.8824 109.512 56.8824C108.724 56.8824 108.065 56.1075 108.065 55.1731V53.5321M110.947 53.5321V55.1731C110.947 56.1189 110.3 56.8824 109.512 56.8824C117.418 56.8824 123.853 64.5172 123.853 73.9069C123.853 83.2965 117.406 90.9428 109.512 90.9428C110.3 90.9428 110.947 91.7176 110.947 92.652V94.293C114.618 93.9283 117.971 92.1962 120.629 89.5183L119.665 88.356C119.382 88.0256 119.241 87.5812 119.241 87.1481C119.241 86.7151 119.382 86.2707 119.665 85.9402C119.935 85.5984 120.312 85.4389 120.677 85.4389C121.041 85.4389 121.418 85.5984 121.7 85.9402L122.665 87.0912C124.912 83.9347 126.382 79.9691 126.688 75.6047H125.312C124.512 75.6047 123.865 74.8413 123.865 73.8955C123.865 72.9497 124.512 72.1976 125.312 72.1976H126.688C126.382 67.8332 124.912 63.8676 122.665 60.7112L121.7 61.8621C121.418 62.2039 121.041 62.3635 120.677 62.3635C120.312 62.3635 119.935 62.2039 119.665 61.8621C119.382 61.5316 119.241 61.0872 119.241 60.6542C119.241 60.2212 119.382 59.7767 119.665 59.4463L120.629 58.2954C117.959 55.6175 114.618 53.8854 110.947 53.5208" fill="#8E8E93"/>
<path d="M109.5 46C108.712 46 108.053 46.7635 108.053 47.7093V55.1732C108.053 56.119 108.712 56.8825 109.5 56.8825C110.288 56.8825 110.935 56.1076 110.935 55.1732V47.7093C110.935 46.7635 110.3 46 109.5 46Z" fill="#8E8E93"/>
<path d="M93.8765 53.6689C93.5118 53.6689 93.1471 53.8399 92.8647 54.1817C92.3 54.8427 92.3 55.9252 92.8647 56.5861L96.3471 60.7226L97.3118 61.8735C97.5941 62.2154 97.9588 62.3749 98.3235 62.3749C98.6882 62.3749 99.0647 62.2154 99.3353 61.8735C99.6176 61.5431 99.7588 61.0986 99.7588 60.6656C99.7588 60.2326 99.6176 59.7882 99.3353 59.4577L98.3706 58.3068L94.8882 54.1817C94.6059 53.8399 94.2294 53.6689 93.8647 53.6689" fill="#8E8E93"/>
<path d="M93.7118 72.209H87.4176C86.6294 72.209 85.9706 72.9725 85.9706 73.9069C85.9706 74.8413 86.6294 75.6162 87.4176 75.6162H93.7118C94.5 75.6162 95.1471 74.8527 95.1471 73.9069C95.1471 72.9611 94.5 72.209 93.7118 72.209Z" fill="#8E8E93"/>
<path d="M98.3352 85.4618C97.9705 85.4618 97.6058 85.6214 97.3235 85.9632L96.3588 87.1141L92.8764 91.2506C92.3117 91.9115 92.3117 92.9941 92.8764 93.655C93.1588 93.9855 93.5235 94.1564 93.8882 94.1564C94.2529 94.1564 94.6294 93.9855 94.9117 93.655L98.3823 89.5185L99.347 88.3676C99.6294 88.0372 99.7705 87.5927 99.7705 87.1597C99.7705 86.7267 99.6294 86.2823 99.347 85.9518C99.0764 85.61 98.6999 85.4504 98.3352 85.4504" fill="#8E8E93"/>
<path d="M109.5 90.9543C108.712 90.9543 108.053 91.7292 108.053 92.6636V100.128C108.053 101.073 108.712 101.837 109.5 101.837C110.288 101.837 110.935 101.073 110.935 100.128V92.6636C110.935 91.7178 110.288 90.9543 109.5 90.9543Z" fill="#8E8E93"/>
<path d="M120.665 85.4617C120.3 85.4617 119.924 85.6212 119.653 85.9631C119.371 86.2935 119.229 86.7379 119.229 87.171C119.229 87.604 119.371 88.0484 119.653 88.3789L120.618 89.5412L124.088 93.6663C124.371 93.9967 124.747 94.1676 125.112 94.1676C125.476 94.1676 125.853 93.9967 126.135 93.6663C126.7 93.0053 126.7 91.9228 126.135 91.2619L122.653 87.1254L121.688 85.9745C121.406 85.6326 121.029 85.4731 120.665 85.4731" fill="#8E8E93"/>
<path d="M131.582 72.209H125.3C124.5 72.209 123.853 72.9725 123.853 73.9069C123.853 74.8413 124.5 75.6162 125.3 75.6162H131.582C132.371 75.6162 133.029 74.8527 133.029 73.9069C133.029 72.9611 132.371 72.209 131.582 72.209Z" fill="#8E8E93"/>
<path d="M125.112 53.6689C124.747 53.6689 124.371 53.8399 124.088 54.1817L120.618 58.3068L119.653 59.4577C119.371 59.7882 119.229 60.2326 119.229 60.6656C119.229 61.0986 119.371 61.5431 119.653 61.8735C119.924 62.2154 120.3 62.3749 120.665 62.3749C121.029 62.3749 121.406 62.2154 121.688 61.8735L122.653 60.7226L126.135 56.5861C126.7 55.9252 126.7 54.8427 126.135 54.1817C125.853 53.8399 125.476 53.6689 125.112 53.6689Z" fill="#8E8E93"/>
</svg>
