<svg width="22" height="22" viewBox="0 0 22 22" fill="none" xmlns="http://www.w3.org/2000/svg">
<path d="M10.99 17.3461C4.92887 17.3461 0.469662 11.9011 0.264783 11.6656C0.0908426 11.4689 -0.00334669 11.2122 9.08786e-05 10.9464C0.00352844 10.6805 0.105968 10.4267 0.285409 10.2356C0.487538 10.0001 4.92612 4.65381 10.9872 4.65381C17.0484 4.65381 21.4374 9.85765 21.6354 10.0932C21.8637 10.3294 21.9943 10.6467 21.9998 10.9795C22.0053 11.3123 21.885 11.6339 21.6643 11.8771C21.4649 12.1127 17.0525 17.3461 10.99 17.3461ZM2.20219 10.4288C2.12451 10.5007 2.06194 10.5889 2.01932 10.6876C1.97669 10.7863 1.95469 10.8921 1.95469 11C1.95469 11.1078 1.97669 11.2143 2.01932 11.3123C2.06194 11.4103 2.12382 11.4992 2.20219 11.5711C3.83573 13.1224 7.19629 15.768 10.99 15.768C14.7837 15.768 18.1401 13.1182 19.7778 11.5768C19.8555 11.5041 19.918 11.416 19.9607 11.318C20.0033 11.22 20.0253 11.1128 20.0253 11.0049C20.0253 10.897 20.0033 10.7905 19.9607 10.6918C19.918 10.5931 19.8555 10.505 19.7778 10.433C18.1442 8.88881 14.7837 6.23753 10.99 6.23753C7.19629 6.23753 3.83298 8.88458 2.20219 10.4288ZM10.99 14.2971C10.3568 14.2844 9.74146 14.0807 9.22102 13.7112C8.70057 13.3417 8.29837 12.822 8.06462 12.2184C7.83086 11.6148 7.77586 10.9541 7.90649 10.3188C8.03712 9.68349 8.34856 9.10176 8.80026 8.64695C9.25195 8.19214 9.82534 7.88471 10.4469 7.76201C11.0684 7.64003 11.7119 7.70842 12.2956 7.96015C12.8793 8.21188 13.3777 8.63426 13.7284 9.17509C14.079 9.71592 14.266 10.3505 14.266 11C14.2564 11.8828 13.9064 12.7254 13.2918 13.3431C12.6771 13.9608 11.8494 14.3042 10.9893 14.2971H10.99ZM10.99 8.74778C10.5569 8.75554 10.1347 8.89445 9.77859 9.14689C9.42246 9.39932 9.14608 9.75471 8.9852 10.1672C8.82432 10.5804 8.78651 11.0324 8.87588 11.4675C8.96526 11.9025 9.1777 12.3009 9.48708 12.6126C9.79646 12.9243 10.1883 13.1351 10.6139 13.219C11.0395 13.3029 11.4802 13.2557 11.8796 13.0843C12.2791 12.9123 12.6208 12.6232 12.8607 12.253C13.1007 11.8828 13.2292 11.4484 13.2292 11.0035C13.2237 10.3999 12.9852 9.8231 12.5651 9.40003C12.145 8.97695 11.5792 8.74214 10.9907 8.74708L10.99 8.74778Z" fill="#8E8E93"/>
</svg>
