<svg width="25" height="22" viewBox="0 0 25 22" fill="none" xmlns="http://www.w3.org/2000/svg">
<path d="M22.7257 12.2889C22.5209 12.2452 22.307 12.283 22.1307 12.3934C21.9544 12.5038 21.829 12.6794 21.7818 12.8817C21.3286 14.7289 20.2999 16.3894 18.8404 17.629C17.381 18.8686 15.5645 19.6237 13.6466 19.7889C11.7542 19.9964 9.84387 19.614 8.18262 18.696C6.52136 17.7779 5.19251 16.3701 4.38139 14.6689C4.35138 14.5918 4.41741 14.4762 4.57948 14.4999L5.82655 15.0053C6.02164 15.0868 6.24149 15.089 6.43808 15.0119C6.63467 14.9349 6.79224 14.7837 6.87703 14.5918C6.91679 14.4977 6.9378 14.3977 6.9378 14.2954C6.9378 14.1932 6.91754 14.0932 6.87778 13.999C6.83801 13.9049 6.77948 13.8205 6.70595 13.7486C6.63241 13.6767 6.54538 13.6212 6.44933 13.5834L3.26189 12.2956C3.0743 12.22 2.86496 12.2163 2.67512 12.2867C2.48529 12.3571 2.32922 12.4942 2.23692 12.672L0.745248 15.6492C0.700227 15.7403 0.673965 15.8396 0.667962 15.9411C0.66196 16.0426 0.676967 16.1441 0.711482 16.2405C0.745998 16.336 0.799272 16.4242 0.869054 16.4991C0.938835 16.5739 1.02287 16.6346 1.11592 16.6776C1.22396 16.728 1.34252 16.7547 1.46257 16.7547C1.61114 16.7554 1.75671 16.7147 1.88351 16.6384C2.01032 16.562 2.11312 16.4516 2.1799 16.3205L2.66012 15.3602C2.67587 15.3343 2.69763 15.312 2.72314 15.2957C2.74866 15.2794 2.77792 15.2691 2.80868 15.2661C2.83945 15.2631 2.87021 15.2668 2.89872 15.2772C2.92724 15.2876 2.9535 15.3054 2.97376 15.3276C3.8434 17.1326 5.21277 18.6582 6.9228 19.7289C8.63282 20.7996 10.6137 21.3701 12.6389 21.3768C13.0133 21.3768 13.3975 21.359 13.7929 21.3234C16.0387 21.1071 18.1614 20.2105 19.8699 18.756C21.5784 17.3015 22.7902 15.3609 23.3387 13.1996C23.3597 13.1003 23.3605 12.9973 23.3402 12.8972C23.32 12.7972 23.2817 12.7024 23.2247 12.6179C23.1677 12.5334 23.0949 12.4601 23.0093 12.4038C22.9238 12.3474 22.8278 12.3074 22.7265 12.2882L22.7257 12.2889ZM24.2264 5.32833C24.1176 5.27794 23.9998 5.25127 23.8797 5.25127C23.7312 5.25053 23.5848 5.29128 23.4588 5.3676C23.3327 5.44392 23.2292 5.55432 23.1624 5.68547L22.6822 6.64576C22.6664 6.67169 22.6447 6.69392 22.6192 6.71022C22.5936 6.72652 22.5644 6.7369 22.5336 6.73986C22.5029 6.74282 22.4721 6.73912 22.4436 6.72874C22.4151 6.71837 22.3888 6.70059 22.3685 6.67836C21.4996 4.8719 20.131 3.34552 18.421 2.27409C16.711 1.20266 14.7293 0.63064 12.7042 0.62323C12.3305 0.62323 11.9463 0.639531 11.5501 0.676579C9.30363 0.89294 7.18091 1.79098 5.47164 3.24623C3.76236 4.70148 2.55132 6.64353 2.00432 8.8064C1.98331 8.90643 1.98256 9.00942 2.00207 9.10945C2.02158 9.20948 2.06134 9.30432 2.11837 9.38953C2.1754 9.474 2.24968 9.54736 2.33522 9.60367C2.42076 9.65998 2.51755 9.69925 2.61885 9.71852C2.82369 9.76224 3.03754 9.72445 3.21387 9.61405C3.3902 9.50364 3.5155 9.32803 3.56277 9.12575C4.01598 7.2778 5.0447 5.6173 6.50411 4.37842C7.96352 3.13953 9.78009 2.38301 11.698 2.21704C13.5903 2.01031 15.5007 2.39264 17.1619 3.31143C18.8232 4.23023 20.152 5.63805 20.9632 7.33856C20.9917 7.41413 20.9271 7.5312 20.7651 7.50601L19.515 6.99623C19.3199 6.91547 19.1008 6.91324 18.9042 6.9903C18.7076 7.06736 18.5501 7.21852 18.4645 7.40969C18.4248 7.50379 18.4037 7.60456 18.4037 7.70607C18.4037 7.80758 18.424 7.90909 18.4638 8.00246C18.5035 8.09656 18.5621 8.18177 18.6356 8.2529C18.7091 8.32403 18.7962 8.38035 18.8922 8.41814L22.0722 9.70444C22.2597 9.78076 22.4691 9.78447 22.6589 9.71482C22.8488 9.64517 23.0056 9.50809 23.0971 9.32952L24.5888 6.35085C24.6331 6.26046 24.6593 6.16191 24.6653 6.06114C24.6713 5.96037 24.6571 5.8596 24.6233 5.76476C24.5896 5.66991 24.537 5.58248 24.4687 5.5069C24.4005 5.43132 24.3179 5.3713 24.2256 5.32759L24.2264 5.32833Z" fill="#41484D"/>
</svg>
