<svg width="20" height="24" viewBox="0 0 20 24" fill="none" xmlns="http://www.w3.org/2000/svg">
<path d="M17.8902 7.65973H17.1926C17.138 7.65973 17.0835 7.64848 17.0327 7.62822C16.982 7.60797 16.9359 7.57721 16.8975 7.53895C16.8591 7.50069 16.8284 7.45568 16.8076 7.40617C16.7869 7.35666 16.7761 7.3034 16.7761 7.25014V6.95007C16.8084 5.26593 16.2045 3.6298 15.0788 2.353C13.9532 1.0762 12.3857 0.249509 10.6754 0.0304582C9.7303 -0.0580624 8.77601 0.0469621 7.87473 0.34028C6.97345 0.633598 6.14516 1.10696 5.44366 1.73185C4.74138 2.356 4.18125 3.11743 3.79861 3.96587C3.41597 4.81432 3.22004 5.73178 3.22234 6.659V7.13911C3.22234 7.14961 3.18546 7.65223 2.73828 7.65973H2.10977C1.83316 7.66048 1.55962 7.71449 1.30453 7.81877C1.04944 7.92304 0.817395 8.07533 0.623001 8.26662C0.427839 8.45792 0.2734 8.68522 0.168904 8.93503C0.0644075 9.18484 0.0106228 9.45265 0.0113912 9.72271V21.9401C0.0129279 22.4839 0.233446 23.0061 0.626843 23.3916C1.02024 23.7772 1.55348 23.9963 2.11053 24H17.891C18.448 23.9963 18.9813 23.778 19.3739 23.3924C19.7665 23.0068 19.9878 22.4854 19.9886 21.9416V9.72271C19.9894 9.45265 19.9364 9.18559 19.8311 8.93578C19.7258 8.68597 19.5722 8.45867 19.377 8.26737C19.1818 8.07608 18.9506 7.92379 18.6955 7.81952C18.4404 7.71524 18.1668 7.66123 17.8902 7.66048V7.65973ZM10.5663 18.3317V20.3512C10.5701 20.4262 10.5586 20.5012 10.5317 20.5717C10.5048 20.6423 10.4641 20.7068 10.4111 20.7615C10.358 20.8163 10.2943 20.8591 10.2236 20.8891C10.1529 20.9191 10.0768 20.9341 10 20.9341C9.92316 20.9341 9.84709 20.9191 9.7764 20.8891C9.70572 20.8591 9.64194 20.8163 9.58893 20.7615C9.53591 20.7068 9.49519 20.6423 9.4683 20.5717C9.4414 20.5012 9.42988 20.4262 9.43372 20.3512V18.3317C9.18016 18.2072 8.97655 18.0031 8.85669 17.7518C8.73682 17.5005 8.70686 17.217 8.77217 16.9469C8.83748 16.6768 8.99422 16.4368 9.21704 16.265C9.43987 16.0932 9.7157 15.9994 9.99923 15.9994C10.2828 15.9994 10.5586 16.0932 10.7814 16.265C11.0042 16.4368 11.161 16.6776 11.2263 16.9469C11.2916 17.2162 11.2624 17.5005 11.1418 17.7518C11.0211 18.0031 10.8183 18.2079 10.5647 18.3317H10.5663ZM15.2394 7.25014C15.2394 7.30415 15.2286 7.35741 15.2079 7.40692C15.1872 7.45643 15.1564 7.50144 15.1172 7.5397C15.078 7.57796 15.0319 7.60797 14.9812 7.62822C14.9305 7.64848 14.876 7.65973 14.8206 7.65973H5.40063C5.32302 7.66648 5.24388 7.65748 5.16935 7.63423C5.09482 7.61097 5.02567 7.57346 4.96574 7.5247C4.90581 7.47519 4.85663 7.41517 4.82129 7.34691C4.78594 7.27864 4.76366 7.20438 4.75752 7.12861V6.659C4.75521 5.89382 4.92886 5.1384 5.26386 4.44673C5.59886 3.75507 6.08907 3.14593 6.69684 2.66282C7.30461 2.17971 8.01534 1.83538 8.77678 1.65459C9.53822 1.47379 10.3312 1.46179 11.098 1.61933C12.2912 1.89314 13.3523 2.5563 14.1053 3.50076C14.8583 4.44523 15.2578 5.61176 15.2379 6.80753V7.25014H15.2394Z" fill="#0055D4"/>
</svg>
