<svg width="676" height="676" viewBox="0 0 676 676" fill="none" xmlns="http://www.w3.org/2000/svg">
<path d="M75.3584 0C33.7389 0 0 33.5922 0 75.0307V216.495C0 223.401 5.62318 229 12.5597 229C19.4963 229 25.1195 223.401 25.1195 216.495V75.0307C25.1195 47.405 47.612 25.0102 75.3584 25.0102H217.44C224.377 25.0102 230 19.4115 230 12.5051C230 5.59873 224.377 0 217.44 0H75.3584Z" fill="#99BAF4" style="fill:#99BAF4;fill:color(display-p3 0.6000 0.7294 0.9569);fill-opacity:1;"/>
<path d="M459.505 0C452.599 0 447 5.59873 447 12.5051C447 19.4115 452.599 25.0102 459.505 25.0102H600.969C628.595 25.0102 650.99 47.405 650.99 75.0307V216.495C650.99 223.401 656.589 229 663.495 229C670.401 229 676 223.401 676 216.495V75.0307C676 33.5922 642.408 0 600.969 0H459.505Z" fill="#99BAF4" style="fill:#99BAF4;fill:color(display-p3 0.6000 0.7294 0.9569);fill-opacity:1;"/>
<path d="M12.5597 448C19.4963 448 25.1195 453.574 25.1195 460.451V601.297C25.1195 628.802 47.612 651.099 75.3584 651.099H217.44C224.377 651.099 230 656.673 230 663.549C230 670.426 224.377 676 217.44 676H75.3584C33.7389 676 0 642.554 0 601.297V460.451C0 453.574 5.62318 448 12.5597 448Z" fill="#99BAF4" style="fill:#99BAF4;fill:color(display-p3 0.6000 0.7294 0.9569);fill-opacity:1;"/>
<path d="M676 460.451C676 453.574 670.401 448 663.495 448C656.589 448 650.99 453.574 650.99 460.451V601.297C650.99 628.802 628.595 651.099 600.969 651.099H459.505C452.599 651.099 447 656.673 447 663.549C447 670.426 452.599 676 459.505 676H600.969C642.408 676 676 642.554 676 601.297V460.451Z" fill="#99BAF4" style="fill:#99BAF4;fill:color(display-p3 0.6000 0.7294 0.9569);fill-opacity:1;"/>
</svg>
