<svg width="16" height="16" viewBox="0 0 16 16" fill="none" xmlns="http://www.w3.org/2000/svg">
<path fill-rule="evenodd" clip-rule="evenodd" d="M7.99959 4.5C4.89563 4.5 2.88559 6.43458 1.83095 7.73693C1.70609 7.89112 1.70609 8.10889 1.83095 8.26308C2.88559 9.56542 4.89563 11.5 7.99959 11.5C11.1035 11.5 13.1136 9.56542 14.1682 8.26308C14.2931 8.10889 14.2931 7.89111 14.1682 7.73692C13.1136 6.43458 11.1035 4.5 7.99959 4.5ZM1.05381 7.10759C2.17409 5.72421 4.44038 3.5 7.99959 3.5C11.5588 3.5 13.8251 5.72421 14.9454 7.10759C15.3674 7.62872 15.3674 8.37128 14.9454 8.89241C13.8251 10.2758 11.5588 12.5 7.99959 12.5C4.44038 12.5 2.17409 10.2758 1.05381 8.89241C0.631802 8.37128 0.631801 7.62872 1.05381 7.10759Z" fill="white" style="fill:white;fill:white;fill-opacity:1;"/>
<path fill-rule="evenodd" clip-rule="evenodd" d="M7.99959 6.5C7.17116 6.5 6.49959 7.17157 6.49959 8C6.49959 8.82843 7.17116 9.5 7.99959 9.5C8.82802 9.5 9.49959 8.82843 9.49959 8C9.49959 7.17157 8.82802 6.5 7.99959 6.5ZM5.49959 8C5.49959 6.61929 6.61888 5.5 7.99959 5.5C9.3803 5.5 10.4996 6.61929 10.4996 8C10.4996 9.38071 9.3803 10.5 7.99959 10.5C6.61888 10.5 5.49959 9.38071 5.49959 8Z" fill="white" style="fill:white;fill:white;fill-opacity:1;"/>
<path fill-rule="evenodd" clip-rule="evenodd" d="M1.64604 14.6464C1.45078 14.4512 1.45078 14.1346 1.64604 13.9393L13.9389 1.64645C14.1342 1.45118 14.4508 1.45118 14.646 1.64645C14.8413 1.84171 14.8413 2.15829 14.646 2.35355L2.35314 14.6464C2.15788 14.8417 1.8413 14.8417 1.64604 14.6464Z" fill="white" style="fill:white;fill:white;fill-opacity:1;"/>
</svg>
