<svg width="24" height="24" viewBox="0 0 24 24" fill="none" xmlns="http://www.w3.org/2000/svg">
<path d="M23.5658 0.150201C23.4459 0.0602042 23.3029 0.00845588 23.1556 0.000956116C23.0082 -0.00654364 22.8609 0.0302052 22.7324 0.106703L1.1646 12.9193C1.0411 12.992 0.939995 13.0993 0.872108 13.229C0.804222 13.3588 0.771723 13.505 0.779667 13.652C0.786889 13.799 0.833832 13.9415 0.914718 14.0623C0.995605 14.183 1.10682 14.279 1.23754 14.3382L6.67137 16.8252C6.76381 16.8724 6.86492 16.9002 6.96819 16.9062C7.07147 16.9122 7.17474 16.8964 7.27224 16.8604C7.36973 16.8244 7.45856 16.7674 7.5344 16.6947C7.61023 16.6212 7.67089 16.5334 7.71278 16.4352C7.75467 16.3369 7.77778 16.2312 7.77922 16.1239C7.78066 16.0167 7.76189 15.9102 7.72289 15.8105C7.68389 15.7107 7.62611 15.6207 7.55245 15.545C7.47879 15.4692 7.3914 15.41 7.29535 15.3695L3.90823 13.82C3.84685 13.7923 3.7934 13.7473 3.75513 13.6895C3.71685 13.6318 3.69446 13.565 3.69085 13.4953C3.68724 13.4255 3.70241 13.3565 3.73491 13.295C3.76741 13.2335 3.81507 13.1833 3.87357 13.148L21.3335 2.77437C21.3941 2.73762 21.4634 2.72037 21.5335 2.72337C21.6036 2.72637 21.6714 2.75112 21.7285 2.79312C21.7855 2.83512 21.8296 2.89361 21.8556 2.96186C21.8816 3.03011 21.8881 3.10361 21.8744 3.17485L18.662 19.9263C18.6512 19.9811 18.6288 20.0321 18.597 20.0763C18.5653 20.1206 18.5241 20.1581 18.4772 20.1843C18.4302 20.2106 18.3782 20.2263 18.3248 20.2293C18.2713 20.2323 18.2179 20.2241 18.1681 20.2031L13.572 18.3236C13.3387 18.2284 13.0816 18.2156 12.8404 18.2869C12.5992 18.3581 12.3876 18.5104 12.2374 18.7196L11.1309 20.2751C11.1309 20.2751 10.8204 20.5975 10.7554 20.1806L10.741 18.2306C10.7395 18.1376 10.7713 18.0469 10.8291 17.9756L19.1575 7.91095C19.2232 7.83146 19.273 7.73921 19.3041 7.64021C19.3351 7.54121 19.3474 7.43547 19.3395 7.33122C19.3315 7.22697 19.3034 7.12498 19.2571 7.03198C19.2109 6.93898 19.1474 6.85649 19.0708 6.78899C18.9148 6.65174 18.7133 6.58425 18.5097 6.60075C18.306 6.61724 18.1168 6.71699 17.9832 6.87749L9.46844 17.1732C9.29223 17.3884 9.19545 17.6614 9.1969 17.9441L9.23301 23.2075C9.23445 23.3755 9.28717 23.539 9.38322 23.6739C9.47928 23.8089 9.61361 23.9094 9.76744 23.9612C9.92126 24.0129 10.0874 24.0129 10.2412 23.9612C10.395 23.9094 10.5294 23.8089 10.6254 23.6739L13.1271 20.1596C13.1755 20.0913 13.2441 20.0418 13.3228 20.0193C13.4015 19.9968 13.4846 20.0006 13.5604 20.0321L18.8729 22.21C18.9784 22.2527 19.091 22.2715 19.2037 22.2647C19.3164 22.258 19.4261 22.225 19.5258 22.1695C19.6247 22.114 19.7114 22.0368 19.7778 21.9423C19.8443 21.8478 19.8905 21.7398 19.9129 21.625L23.8734 0.951176C23.9023 0.80118 23.8886 0.645186 23.8337 0.50344C23.7788 0.361695 23.6857 0.238698 23.5658 0.150201Z" fill="#41484D"/>
</svg>
