<svg width="14" height="4" viewBox="0 0 14 4" fill="none" xmlns="http://www.w3.org/2000/svg">
<path d="M2.02783 3.49268C1.75667 3.49268 1.50765 3.42627 1.28076 3.29346C1.05941 3.15511 0.879557 2.97526 0.741211 2.75391C0.608398 2.53255 0.541992 2.2863 0.541992 2.01514C0.541992 1.6001 0.688639 1.2487 0.981934 0.960938C1.27523 0.673177 1.62386 0.529297 2.02783 0.529297C2.45394 0.529297 2.81087 0.673177 3.09863 0.960938C3.38639 1.24316 3.53027 1.59456 3.53027 2.01514C3.53027 2.2863 3.4611 2.53255 3.32275 2.75391C3.18441 2.97526 3.00179 3.15511 2.7749 3.29346C2.54801 3.42627 2.29899 3.49268 2.02783 3.49268ZM6.9917 3.49268C6.72054 3.49268 6.47152 3.42627 6.24463 3.29346C6.02327 3.15511 5.84619 2.97526 5.71338 2.75391C5.58057 2.53255 5.51416 2.2863 5.51416 2.01514C5.51416 1.6001 5.65804 1.2487 5.9458 0.960938C6.2391 0.673177 6.58773 0.529297 6.9917 0.529297C7.41227 0.529297 7.76367 0.673177 8.0459 0.960938C8.33366 1.24316 8.47754 1.59456 8.47754 2.01514C8.47754 2.2863 8.40837 2.53255 8.27002 2.75391C8.13721 2.97526 7.95736 3.15511 7.73047 3.29346C7.50911 3.42627 7.26286 3.49268 6.9917 3.49268ZM11.9639 3.49268C11.6872 3.49268 11.4354 3.42627 11.2085 3.29346C10.9816 3.15511 10.799 2.97526 10.6606 2.75391C10.5278 2.53255 10.4614 2.2863 10.4614 2.01514C10.4614 1.6001 10.6081 1.2487 10.9014 0.960938C11.1947 0.673177 11.5488 0.529297 11.9639 0.529297C12.3789 0.529297 12.7303 0.673177 13.0181 0.960938C13.3058 1.24316 13.4497 1.59456 13.4497 2.01514C13.4497 2.2863 13.3805 2.53255 13.2422 2.75391C13.1094 2.97526 12.9295 3.15511 12.7026 3.29346C12.4757 3.42627 12.2295 3.49268 11.9639 3.49268Z" fill="#8E8E93"/>
</svg>
